<?xml version="1.0" encoding="utf-8"?>
<!-- Generator: Adobe Illustrator 19.1.0, SVG Export Plug-In . SVG Version: 6.00 Build 0)  -->
<svg version="1.1" id="Ebene_1" xmlns="http://www.w3.org/2000/svg" xmlns:xlink="http://www.w3.org/1999/xlink" x="0px" y="0px"
	 viewBox="0 0 32 32" style="enable-background:new 0 0 32 32;" xml:space="preserve">
<style type="text/css">
	.st0{fill-rule:evenodd;clip-rule:evenodd;}
	.st1{fill:none;stroke:#000000;stroke-width:2;stroke-linecap:round;stroke-miterlimit:10;}
	.st2{fill-rule:evenodd;clip-rule:evenodd;fill:none;stroke:#000000;stroke-width:2;stroke-miterlimit:10;}
	.st3{fill:none;stroke:#000000;stroke-width:2;stroke-linecap:round;stroke-linejoin:round;stroke-miterlimit:10;}
	
		.st4{fill-rule:evenodd;clip-rule:evenodd;fill:none;stroke:#000000;stroke-width:2;stroke-linecap:round;stroke-linejoin:round;stroke-miterlimit:10;}
	.st5{fill:none;stroke:#000000;stroke-linecap:round;stroke-linejoin:round;stroke-miterlimit:10;}
	.st6{opacity:0.5;}
	.st7{fill:none;stroke:#000000;stroke-width:2;stroke-linecap:round;stroke-linejoin:round;}
	.st8{fill:none;stroke:#000000;stroke-width:2;stroke-linecap:round;stroke-linejoin:round;stroke-dasharray:2,3;}
	
		.st9{clip-path:url(#SVGID_2_);fill-rule:evenodd;clip-rule:evenodd;fill:none;stroke:#000000;stroke-width:2;stroke-linecap:round;stroke-linejoin:round;stroke-miterlimit:10;}
	
		.st10{clip-path:url(#SVGID_4_);fill-rule:evenodd;clip-rule:evenodd;fill:none;stroke:#000000;stroke-width:2;stroke-linecap:round;stroke-linejoin:round;stroke-miterlimit:10;}
	
		.st11{clip-path:url(#SVGID_6_);fill-rule:evenodd;clip-rule:evenodd;fill:none;stroke:#000000;stroke-width:2;stroke-linecap:round;stroke-linejoin:round;stroke-miterlimit:10;}
	.st12{fill:none;stroke:#000000;stroke-width:2;stroke-miterlimit:10;}
	.st13{clip-path:url(#SVGID_8_);}
	.st14{fill-rule:evenodd;clip-rule:evenodd;fill:none;}
	.st15{fill:none;stroke:#000000;stroke-miterlimit:10;}
	.st16{clip-path:url(#SVGID_10_);}
</style>
<g>
	<path d="M30,26H2c-0.6,0-1,0.4-1,1s0.4,1,1,1h28c0.6,0,1-0.4,1-1S30.6,26,30,26z"/>
	<path d="M2,23c-0.3,0-0.5,0.2-0.5,0.5S1.7,24,2,24h3c0.3,0,0.5-0.2,0.5-0.5S5.3,23,5,23H2z"/>
	<path d="M10,23c-0.3,0-0.5,0.2-0.5,0.5S9.7,24,10,24h3c0.3,0,0.5-0.2,0.5-0.5S13.3,23,13,23H10z"/>
	<path d="M19,23c-0.3,0-0.5,0.2-0.5,0.5S18.7,24,19,24h3c0.3,0,0.5-0.2,0.5-0.5S22.3,23,22,23H19z"/>
	<path d="M27,23c-0.3,0-0.5,0.2-0.5,0.5S26.7,24,27,24h3c0.3,0,0.5-0.2,0.5-0.5S30.3,23,30,23H27z"/>
	<path d="M2,21h28c0.6,0,1-0.4,1-1s-0.4-1-1-1h-3v-4c0-0.6-0.4-1-1-1h-3V9.6l0.5,0.3C23.7,10,23.8,10,24,10c0.4,0,0.7-0.2,0.9-0.5
		C25.1,9,25,8.4,24.5,8.1l-7.5-4C16.7,4,16.3,4,16,4.1l-7.5,4C8,8.4,7.9,9,8.1,9.5C8.4,10,9,10.1,9.5,9.9L10,9.6V11H6
		c-0.6,0-1,0.4-1,1v7H2c-0.6,0-1,0.4-1,1S1.4,21,2,21z M25,16v3h-9v-3H25z M12,8.5l4.5-2.4L21,8.5V14h-5v-2c0-0.6-0.4-1-1-1h-3V8.5z
		 M7,13h7v2v4H7V13z"/>
</g>
</svg>
