<?xml version="1.0" encoding="utf-8"?>
<!-- Generator: Adobe Illustrator 19.1.0, SVG Export Plug-In . SVG Version: 6.00 Build 0)  -->
<svg version="1.1" id="Ebene_1" xmlns="http://www.w3.org/2000/svg" xmlns:xlink="http://www.w3.org/1999/xlink" x="0px" y="0px"
	 viewBox="0 0 32 32" style="enable-background:new 0 0 32 32;" xml:space="preserve">
<style type="text/css">
	.st0{fill-rule:evenodd;clip-rule:evenodd;}
	.st1{fill:none;stroke:#000000;stroke-width:2;stroke-linecap:round;stroke-miterlimit:10;}
	.st2{fill-rule:evenodd;clip-rule:evenodd;fill:none;stroke:#000000;stroke-width:2;stroke-miterlimit:10;}
	.st3{fill:none;stroke:#000000;stroke-width:2;stroke-linecap:round;stroke-linejoin:round;stroke-miterlimit:10;}
	
		.st4{fill-rule:evenodd;clip-rule:evenodd;fill:none;stroke:#000000;stroke-width:2;stroke-linecap:round;stroke-linejoin:round;stroke-miterlimit:10;}
	.st5{fill:none;stroke:#000000;stroke-linecap:round;stroke-linejoin:round;stroke-miterlimit:10;}
	.st6{opacity:0.5;}
	.st7{fill:none;stroke:#000000;stroke-width:2;stroke-linecap:round;stroke-linejoin:round;}
	.st8{fill:none;stroke:#000000;stroke-width:2;stroke-linecap:round;stroke-linejoin:round;stroke-dasharray:2,3;}
	
		.st9{clip-path:url(#SVGID_2_);fill-rule:evenodd;clip-rule:evenodd;fill:none;stroke:#000000;stroke-width:2;stroke-linecap:round;stroke-linejoin:round;stroke-miterlimit:10;}
	
		.st10{clip-path:url(#SVGID_4_);fill-rule:evenodd;clip-rule:evenodd;fill:none;stroke:#000000;stroke-width:2;stroke-linecap:round;stroke-linejoin:round;stroke-miterlimit:10;}
	
		.st11{clip-path:url(#SVGID_6_);fill-rule:evenodd;clip-rule:evenodd;fill:none;stroke:#000000;stroke-width:2;stroke-linecap:round;stroke-linejoin:round;stroke-miterlimit:10;}
	.st12{fill:none;stroke:#000000;stroke-width:2;stroke-miterlimit:10;}
	.st13{clip-path:url(#SVGID_8_);}
	.st14{fill-rule:evenodd;clip-rule:evenodd;fill:none;}
	.st15{fill:none;stroke:#000000;stroke-miterlimit:10;}
	.st16{clip-path:url(#SVGID_10_);}
</style>
<path d="M25,17.6v-4.2l0.3,0.3c0.2,0.2,0.4,0.3,0.7,0.3c0.3,0,0.5-0.1,0.7-0.3c0.4-0.4,0.3-1-0.1-1.4l-4.5-4c-0.4-0.3-0.9-0.3-1.3,0
	l-4.5,4c-0.4,0.4-0.5,1-0.1,1.4c0.4,0.4,1,0.4,1.4,0.1l0.3-0.3V17c0,0.1,0,0.2,0.1,0.3c-1.8,0.3-3.3,1-4.6,1.9c0,0,0,0,0,0
	C12.6,19.1,11.8,19,11,19v-2h3c0.4,0,0.7-0.2,0.9-0.5c0.2-0.3,0.2-0.7,0-1L12.6,12h0.6c0.4,0,0.7-0.2,0.9-0.5s0.2-0.7,0-1l-3.2-6
	c-0.3-0.7-1.4-0.7-1.8,0l-3.2,6c-0.2,0.3-0.2,0.7,0,1S6.4,12,6.8,12h0.6l-2.2,3.5c-0.2,0.3-0.2,0.7,0,1C5.3,16.8,5.6,17,6,17h3v2
	c0,0,0,0.1,0,0.1c-4.6,0.6-8,3.4-8,6.9c0,0.6,0.4,1,1,1s1-0.4,1-1c0-2.7,3.7-5,8-5c4.3,0,8,2.3,8,5c0,0.6,0.4,1,1,1s1-0.4,1-1
	c0-2.6-2-4.9-4.9-6.1c1.4-0.6,3-0.9,4.7-0.9c4.4,0,8.2,2.3,8.2,5c0,0.6,0.4,1,1,1s1-0.4,1-1C31,21.1,28.6,18.7,25,17.6z M10,7.1
	l1.5,2.9h-0.7H9.2H8.5L10,7.1z M9.7,12h0.5l1.9,3H7.8L9.7,12z M21.5,10.3l1.9,1.7h-3.7L21.5,10.3z M20,17C20,17,20,17,20,17l0-3h3
	v3.2c-0.7-0.1-1.4-0.2-2.2-0.2C20.5,17,20.3,17,20,17z"/>
</svg>
