<?xml version="1.0" encoding="utf-8"?>
<!-- Generator: Adobe Illustrator 19.1.0, SVG Export Plug-In . SVG Version: 6.00 Build 0)  -->
<svg version="1.1" id="Ebene_1" xmlns="http://www.w3.org/2000/svg" xmlns:xlink="http://www.w3.org/1999/xlink" x="0px" y="0px"
	 viewBox="0 0 32 32" style="enable-background:new 0 0 32 32;" xml:space="preserve">
<style type="text/css">
	.st0{fill-rule:evenodd;clip-rule:evenodd;}
	.st1{fill:none;stroke:#000000;stroke-width:2;stroke-linecap:round;stroke-miterlimit:10;}
	.st2{fill-rule:evenodd;clip-rule:evenodd;fill:none;stroke:#000000;stroke-width:2;stroke-miterlimit:10;}
	.st3{fill:none;stroke:#000000;stroke-width:2;stroke-linecap:round;stroke-linejoin:round;stroke-miterlimit:10;}
	
		.st4{fill-rule:evenodd;clip-rule:evenodd;fill:none;stroke:#000000;stroke-width:2;stroke-linecap:round;stroke-linejoin:round;stroke-miterlimit:10;}
	.st5{fill:none;stroke:#000000;stroke-linecap:round;stroke-linejoin:round;stroke-miterlimit:10;}
	.st6{opacity:0.5;}
	.st7{fill:none;stroke:#000000;stroke-width:2;stroke-linecap:round;stroke-linejoin:round;}
	.st8{fill:none;stroke:#000000;stroke-width:2;stroke-linecap:round;stroke-linejoin:round;stroke-dasharray:2,3;}
	
		.st9{clip-path:url(#SVGID_2_);fill-rule:evenodd;clip-rule:evenodd;fill:none;stroke:#000000;stroke-width:2;stroke-linecap:round;stroke-linejoin:round;stroke-miterlimit:10;}
	
		.st10{clip-path:url(#SVGID_4_);fill-rule:evenodd;clip-rule:evenodd;fill:none;stroke:#000000;stroke-width:2;stroke-linecap:round;stroke-linejoin:round;stroke-miterlimit:10;}
	
		.st11{clip-path:url(#SVGID_6_);fill-rule:evenodd;clip-rule:evenodd;fill:none;stroke:#000000;stroke-width:2;stroke-linecap:round;stroke-linejoin:round;stroke-miterlimit:10;}
	.st12{fill:none;stroke:#000000;stroke-width:2;stroke-miterlimit:10;}
	.st13{clip-path:url(#SVGID_8_);}
	.st14{fill-rule:evenodd;clip-rule:evenodd;fill:none;}
	.st15{fill:none;stroke:#000000;stroke-miterlimit:10;}
	.st16{clip-path:url(#SVGID_10_);}
</style>
<g>
	<rect x="17" y="14" width="1" height="1"/>
	<rect x="19" y="14" width="1" height="1"/>
	<rect x="10" y="12" width="1" height="1"/>
	<rect x="8" y="12" width="1" height="1"/>
	<rect x="8" y="14" width="1" height="1"/>
	<rect x="10" y="14" width="1" height="1"/>
	<rect x="12" y="14" width="1" height="1"/>
	<rect x="8" y="16" width="1" height="1"/>
	<rect x="10" y="16" width="1" height="1"/>
	<rect x="12" y="16" width="1" height="1"/>
	<rect x="12" y="12" width="1" height="1"/>
	<rect x="19" y="7" width="1" height="1"/>
	<rect x="17" y="7" width="1" height="1"/>
	<rect x="19" y="9" width="1" height="1"/>
	<rect x="17" y="9" width="1" height="1"/>
	<rect x="15" y="7" width="1" height="1"/>
	<rect x="13" y="7" width="1" height="1"/>
	<rect x="21" y="14" width="1" height="1"/>
	<rect x="17" y="16" width="1" height="1"/>
	<rect x="19" y="16" width="1" height="1"/>
	<rect x="21" y="16" width="1" height="1"/>
	<rect x="23" y="14" width="1" height="1"/>
	<rect x="23" y="16" width="1" height="1"/>
	<path d="M30,25h-3V12c0-0.6-0.4-1-1-1h-3V5c0-0.6-0.4-1-1-1H11c-0.6,0-1,0.4-1,1v4H6c-0.6,0-1,0.4-1,1v15H2c-0.6,0-1,0.4-1,1
		s0.4,1,1,1h17h3h8c0.6,0,1-0.4,1-1S30.6,25,30,25z M25,25h-2v-1.5c0-1.4-1.1-2.5-2.5-2.5S18,22.1,18,23.5V25h-2V13h9V25z M12,6h9v5
		h-5v-1c0-0.6-0.4-1-1-1h-3V6z M7,11h7v1v13H7V11z M20,25v-1.5c0-0.3,0.2-0.5,0.5-0.5s0.5,0.2,0.5,0.5V25H20z"/>
</g>
</svg>
