<?xml version="1.0" encoding="UTF-8"?>
<svg width="32px" height="32px" viewBox="0 0 32 32" version="1.1" xmlns="http://www.w3.org/2000/svg" xmlns:xlink="http://www.w3.org/1999/xlink">
    <!-- Generator: Sketch 43.2 (39069) - http://www.bohemiancoding.com/sketch -->
    <title>save as review</title>
    <desc>Created with Sketch.</desc>
    <defs></defs>
    <g id="Purposal-04" stroke="none" stroke-width="1" fill="none" fill-rule="evenodd">
        <g id="icons" transform="translate(-221.000000, -939.000000)">
            <g id="save-as-review" transform="translate(222.000000, 940.000000)">
                <path d="M24.6426818,8.25040909 C24.1095,7.71722727 23.2463182,7.71722727 22.7131364,8.25040909 L12.1067727,18.8567727 L7.28631818,14.0363182 C6.75313636,13.5031364 5.88995455,13.5031364 5.35677273,14.0363182 C4.82495455,14.5681364 4.82495455,15.4326818 5.35813636,15.9645 L11.1426818,21.7490455 L11.1426818,21.7490455 C11.4085909,22.0163182 11.7576818,22.1485909 12.1081364,22.1485909 C12.2431364,22.1485909 12.3754091,22.1117727 12.5063182,22.0708636 C12.5431364,22.0599545 12.5840455,22.0640455 12.6208636,22.0490455 C12.7845,21.9822273 12.9385909,21.8826818 13.0722273,21.7490455 L13.0722273,21.7490455 L24.6426818,10.1785909 C25.1758636,9.64677273 25.1758636,8.78359091 24.6426818,8.25040909" id="Fill-1" fill="#2B3036"></path>
                <path d="M30,15 C30,23.2840909 23.2840909,30 15,30 C6.71590909,30 0,23.2840909 0,15 C0,6.71590909 6.71590909,0 15,0 C23.2840909,0 30,6.71590909 30,15 Z" id="Stroke-3" stroke="#2B3036" stroke-width="2"></path>
            </g>
        </g>
    </g>
</svg>