<?xml version="1.0" encoding="utf-8"?>
<!-- Generator: Adobe Illustrator 19.1.0, SVG Export Plug-In . SVG Version: 6.00 Build 0)  -->
<svg version="1.1" id="Ebene_1" xmlns="http://www.w3.org/2000/svg" xmlns:xlink="http://www.w3.org/1999/xlink" x="0px" y="0px"
	 viewBox="0 0 32 32" style="enable-background:new 0 0 32 32;" xml:space="preserve">
<style type="text/css">
	.st0{fill-rule:evenodd;clip-rule:evenodd;}
	.st1{fill:none;stroke:#000000;stroke-width:2;stroke-linecap:round;stroke-miterlimit:10;}
	.st2{fill-rule:evenodd;clip-rule:evenodd;fill:none;stroke:#000000;stroke-width:2;stroke-miterlimit:10;}
	.st3{fill:none;stroke:#000000;stroke-width:2;stroke-linecap:round;stroke-linejoin:round;stroke-miterlimit:10;}
	
		.st4{fill-rule:evenodd;clip-rule:evenodd;fill:none;stroke:#000000;stroke-width:2;stroke-linecap:round;stroke-linejoin:round;stroke-miterlimit:10;}
	.st5{fill:none;stroke:#000000;stroke-linecap:round;stroke-linejoin:round;stroke-miterlimit:10;}
	.st6{opacity:0.5;}
	.st7{fill:none;stroke:#000000;stroke-width:2;stroke-linecap:round;stroke-linejoin:round;}
	.st8{fill:none;stroke:#000000;stroke-width:2;stroke-linecap:round;stroke-linejoin:round;stroke-dasharray:2,3;}
	
		.st9{clip-path:url(#SVGID_2_);fill-rule:evenodd;clip-rule:evenodd;fill:none;stroke:#000000;stroke-width:2;stroke-linecap:round;stroke-linejoin:round;stroke-miterlimit:10;}
	
		.st10{clip-path:url(#SVGID_4_);fill-rule:evenodd;clip-rule:evenodd;fill:none;stroke:#000000;stroke-width:2;stroke-linecap:round;stroke-linejoin:round;stroke-miterlimit:10;}
	
		.st11{clip-path:url(#SVGID_6_);fill-rule:evenodd;clip-rule:evenodd;fill:none;stroke:#000000;stroke-width:2;stroke-linecap:round;stroke-linejoin:round;stroke-miterlimit:10;}
	.st12{fill:none;stroke:#000000;stroke-width:2;stroke-miterlimit:10;}
	.st13{clip-path:url(#SVGID_8_);}
	.st14{fill-rule:evenodd;clip-rule:evenodd;fill:none;}
	.st15{fill:none;stroke:#000000;stroke-miterlimit:10;}
	.st16{clip-path:url(#SVGID_10_);}
</style>
<path d="M27,15h-1.1c-0.1-1.1-0.4-2.1-0.8-3.1l0.9-0.5c0.5-0.3,0.6-0.9,0.4-1.4S25.5,9.4,25,9.6l-0.9,0.5c-0.6-0.9-1.4-1.7-2.3-2.3
	L22.4,7c0.3-0.5,0.1-1.1-0.4-1.4c-0.5-0.3-1.1-0.1-1.4,0.4l-0.5,0.9c-1-0.4-2-0.7-3.1-0.8V5c0-0.6-0.4-1-1-1s-1,0.4-1,1v1.1
	c-1.1,0.1-2.1,0.4-3.1,0.8L11.4,6c-0.3-0.5-0.9-0.6-1.4-0.4C9.5,5.9,9.4,6.5,9.6,7l0.5,0.9c-0.9,0.6-1.7,1.4-2.3,2.3L7,9.6
	C6.5,9.4,5.9,9.5,5.6,10c-0.3,0.5-0.1,1.1,0.4,1.4l0.9,0.5c-0.4,1-0.7,2-0.8,3.1H5c-0.6,0-1,0.4-1,1s0.4,1,1,1h1.1
	c0.1,1.1,0.4,2.1,0.8,3.1L6,20.6c-0.5,0.3-0.6,0.9-0.4,1.4c0.2,0.3,0.5,0.5,0.9,0.5c0.2,0,0.3,0,0.5-0.1l0.9-0.5
	c0.6,0.9,1.4,1.7,2.3,2.3L9.6,25c-0.3,0.5-0.1,1.1,0.4,1.4c0.2,0.1,0.3,0.1,0.5,0.1c0.3,0,0.7-0.2,0.9-0.5l0.5-0.9
	c1,0.4,2,0.7,3.1,0.8V27c0,0.6,0.4,1,1,1s1-0.4,1-1v-1.1c1.1-0.1,2.1-0.4,3.1-0.8l0.5,0.9c0.2,0.3,0.5,0.5,0.9,0.5
	c0.2,0,0.3,0,0.5-0.1c0.5-0.3,0.6-0.9,0.4-1.4l-0.5-0.9c0.9-0.6,1.7-1.4,2.3-2.3l0.9,0.5c0.2,0.1,0.3,0.1,0.5,0.1
	c0.3,0,0.7-0.2,0.9-0.5c0.3-0.5,0.1-1.1-0.4-1.4l-0.9-0.5c0.4-1,0.7-2,0.8-3.1H27c0.6,0,1-0.4,1-1S27.6,15,27,15z M14.3,17
	C14.3,17,14.3,17,14.3,17C14.3,17,14.3,17,14.3,17c-0.3-0.5-0.3-1-0.2-1.5c0.1-0.5,0.5-0.9,0.9-1.2c0.3-0.2,0.6-0.3,1-0.3
	c0.7,0,1.4,0.4,1.7,1c0.6,1,0.2,2.2-0.7,2.7c-0.3,0.2-0.6,0.3-1,0.3C15.3,18,14.6,17.6,14.3,17z M12,9.1c1-0.5,2-0.9,3-1V12
	c0,0,0,0.1,0,0.1c-0.4,0.1-0.7,0.2-1,0.4c-1.6,0.9-2.3,2.8-1.8,4.5l-3.5,2C7.1,15.4,8.5,11.1,12,9.1z M20,22.9
	c-3.5,2-8,1.1-10.4-2.1l3.5-2c0.8,0.8,1.8,1.2,2.9,1.2c0.7,0,1.4-0.2,2-0.5c0.3-0.2,0.6-0.4,0.8-0.7l3.5,2
	C21.7,21.7,20.9,22.4,20,22.9z M19.9,17.1c0.3-1,0.2-2.1-0.4-3.1c-0.6-1-1.5-1.6-2.5-1.9c0,0,0-0.1,0-0.1V8.1
	c2.4,0.3,4.6,1.7,5.9,3.9c1.1,1.9,1.4,4,0.8,6.1c-0.1,0.4-0.2,0.7-0.4,1L19.9,17.1z"/>
</svg>
