<?xml version="1.0" encoding="utf-8"?>
<!-- Generator: Adobe Illustrator 19.1.0, SVG Export Plug-In . SVG Version: 6.00 Build 0)  -->
<svg version="1.1" id="Ebene_1" xmlns="http://www.w3.org/2000/svg" xmlns:xlink="http://www.w3.org/1999/xlink" x="0px" y="0px"
	 viewBox="0 0 32 32" style="enable-background:new 0 0 32 32;" xml:space="preserve">
<style type="text/css">
	.st0{fill-rule:evenodd;clip-rule:evenodd;}
	.st1{fill:none;stroke:#000000;stroke-width:2;stroke-linecap:round;stroke-miterlimit:10;}
	.st2{fill-rule:evenodd;clip-rule:evenodd;fill:none;stroke:#000000;stroke-width:2;stroke-miterlimit:10;}
	.st3{fill:none;stroke:#000000;stroke-width:2;stroke-linecap:round;stroke-linejoin:round;stroke-miterlimit:10;}
	
		.st4{fill-rule:evenodd;clip-rule:evenodd;fill:none;stroke:#000000;stroke-width:2;stroke-linecap:round;stroke-linejoin:round;stroke-miterlimit:10;}
	.st5{fill:none;stroke:#000000;stroke-linecap:round;stroke-linejoin:round;stroke-miterlimit:10;}
	.st6{opacity:0.5;}
	.st7{fill:none;stroke:#000000;stroke-width:2;stroke-linecap:round;stroke-linejoin:round;}
	.st8{fill:none;stroke:#000000;stroke-width:2;stroke-linecap:round;stroke-linejoin:round;stroke-dasharray:2,3;}
	
		.st9{clip-path:url(#SVGID_2_);fill-rule:evenodd;clip-rule:evenodd;fill:none;stroke:#000000;stroke-width:2;stroke-linecap:round;stroke-linejoin:round;stroke-miterlimit:10;}
	
		.st10{clip-path:url(#SVGID_4_);fill-rule:evenodd;clip-rule:evenodd;fill:none;stroke:#000000;stroke-width:2;stroke-linecap:round;stroke-linejoin:round;stroke-miterlimit:10;}
	
		.st11{clip-path:url(#SVGID_6_);fill-rule:evenodd;clip-rule:evenodd;fill:none;stroke:#000000;stroke-width:2;stroke-linecap:round;stroke-linejoin:round;stroke-miterlimit:10;}
	.st12{fill:none;stroke:#000000;stroke-width:2;stroke-miterlimit:10;}
	.st13{clip-path:url(#SVGID_8_);}
	.st14{fill-rule:evenodd;clip-rule:evenodd;fill:none;}
	.st15{fill:none;stroke:#000000;stroke-miterlimit:10;}
	.st16{clip-path:url(#SVGID_10_);}
</style>
<g>
	<path d="M27,23H5c-0.6,0-1,0.4-1,1s0.4,1,1,1h22c0.6,0,1-0.4,1-1S27.6,23,27,23z"/>
	<path d="M6,18c0.6,0,1-0.4,1-1v-4h1c0.6,0,1-0.4,1-1s-0.4-1-1-1H7V9h2c0.6,0,1-0.4,1-1S9.6,7,9,7H6C5.4,7,5,7.4,5,8v9
		C5,17.6,5.4,18,6,18z"/>
	<path d="M11.7,17.9c0.5,0.2,1.1-0.1,1.3-0.6l0.4-1.3h3.2l0.4,1.3c0.1,0.4,0.5,0.7,0.9,0.7c0.1,0,0.2,0,0.3-0.1
		c0.5-0.2,0.8-0.7,0.6-1.3l-3-9C15.8,7.3,15.4,7,15,7s-0.8,0.3-0.9,0.7l-3,9C10.9,17.2,11.2,17.8,11.7,17.9z M15,11.2l0.9,2.8h-1.9
		L15,11.2z"/>
	<path d="M24,18c0.7,0,1.2-0.3,1.7-0.9l0.6,0.6c0.2,0.2,0.5,0.3,0.7,0.3s0.5-0.1,0.7-0.3c0.4-0.4,0.4-1,0-1.4l-1-1
		c0,0-0.1,0-0.1-0.1c0.2-0.8,0.4-1.8,0.4-2.7C27,9.8,26,7,24,7s-3,2.8-3,5.5S22,18,24,18z M24,9c0.3,0.1,1,1.3,1,3.5s-0.7,3.4-1,3.5
		c-0.3-0.1-1-1.3-1-3.5S23.7,9.1,24,9z"/>
</g>
</svg>
