<?xml version="1.0" encoding="UTF-8" standalone="no"?>
<!DOCTYPE svg PUBLIC "-//W3C//DTD SVG 1.1//EN" "http://www.w3.org/Graphics/SVG/1.1/DTD/svg11.dtd">
<svg width="100%" height="100%" viewBox="0 0 50 50" version="1.1" xmlns="http://www.w3.org/2000/svg" xmlns:xlink="http://www.w3.org/1999/xlink" xml:space="preserve" style="fill-rule:evenodd;clip-rule:evenodd;">
    <g id="software.-suite.-icon" transform="matrix(1,0,0,1,1,1.5)">
        <path id="Rectangle.-28" d="M21.08,4C21.08,2.344 19.736,1 18.08,1L4,1C2.344,1 1,2.344 1,4L1,18.061C1,19.717 2.344,21.061 4,21.061L18.08,21.061C19.736,21.061 21.08,19.717 21.08,18.061L21.08,4Z" style="fill:none;stroke:rgb(232,237,243);stroke-width:2px;"/>
        <path id="Rectangle.-28.-Copy" d="M47,4C47,2.344 45.656,1 44,1L29.92,1C28.264,1 26.92,2.344 26.92,4L26.92,18.061C26.92,19.717 28.264,21.061 29.92,21.061L44,21.061C45.656,21.061 47,19.717 47,18.061L47,4Z" style="fill:none;stroke:rgb(232,237,243);stroke-width:2px;"/>
        <path id="Rectangle.-28.-Copy.-3" d="M21.08,28.939C21.08,27.283 19.736,25.939 18.08,25.939L4,25.939C2.344,25.939 1,27.283 1,28.939L1,43C1,44.656 2.344,46 4,46L18.08,46C19.736,46 21.08,44.656 21.08,43L21.08,28.939Z" style="fill:none;stroke:rgb(232,237,243);stroke-width:2px;"/>
        <path id="Rectangle.-28.-Copy.-2" d="M47,28.939C47,27.283 45.656,25.939 44,25.939L29.92,25.939C28.264,25.939 26.92,27.283 26.92,28.939L26.92,43C26.92,44.656 28.264,46 29.92,46L44,46C45.656,46 47,44.656 47,43L47,28.939Z" style="fill:none;stroke:rgb(232,237,243);stroke-width:2px;"/>
    </g>
</svg>
