<?xml version="1.0" encoding="UTF-8" standalone="no"?>
<!DOCTYPE svg PUBLIC "-//W3C//DTD SVG 1.1//EN" "http://www.w3.org/Graphics/SVG/1.1/DTD/svg11.dtd">
<svg width="100%" height="100%" viewBox="0 0 50 50" version="1.1" xmlns="http://www.w3.org/2000/svg" xmlns:xlink="http://www.w3.org/1999/xlink" xml:space="preserve" style="fill-rule:evenodd;clip-rule:evenodd;">
    <g id="new.-project.-icon" transform="matrix(1,0,0,1,6.5,0)">
        <path id="Combined.-Shape" d="M32.158,29.589C30.703,28.93 29.113,28.581 27.474,28.581C21.164,28.581 16.053,33.729 16.053,40.077C16.053,42.102 16.575,44.048 17.541,45.756L3.001,45.756C1.899,45.756 1,44.858 1,43.76L1,2.996C1,1.893 1.894,1 3.001,1L30.157,1C31.259,1 32.158,1.899 32.158,2.996L32.158,29.589Z" style="fill:none;stroke:rgb(232,237,243);stroke-width:2px;"/>
        <path id="Line" d="M1.014,6.202L32.211,6.202" style="fill:none;stroke:rgb(232,237,243);stroke-width:1px;stroke-linecap:square;"/>
        <path id="Rectangle.-22" d="M5.367,11.684C5.367,11.124 4.913,10.67 4.353,10.67C3.794,10.67 3.34,11.124 3.34,11.684L3.34,11.694C3.34,12.254 3.794,12.708 4.353,12.708C4.913,12.708 5.367,12.254 5.367,11.694L5.367,11.684Z" style="fill:rgb(232,237,243);"/>
        <path id="Rectangle.-22.-Copy" d="M5.367,15.88C5.367,15.32 4.913,14.866 4.353,14.866C3.794,14.866 3.34,15.32 3.34,15.88L3.34,15.89C3.34,16.45 3.794,16.904 4.353,16.904C4.913,16.904 5.367,16.45 5.367,15.89L5.367,15.88Z" style="fill:rgb(232,237,243);"/>
        <path id="Rectangle.-22.-Copy.-2" d="M5.367,20.076C5.367,19.516 4.913,19.062 4.353,19.062C3.794,19.062 3.34,19.516 3.34,20.076L3.34,20.086C3.34,20.646 3.794,21.1 4.353,21.1C4.913,21.1 5.367,20.646 5.367,20.086L5.367,20.076Z" style="fill:rgb(232,237,243);"/>
        <path id="Rectangle.-23" d="M28.745,11.509C28.745,11.046 28.369,10.67 27.906,10.67L7.28,10.67C6.817,10.67 6.441,11.046 6.441,11.509C6.441,11.972 6.817,12.348 7.28,12.348L27.906,12.348C28.369,12.348 28.745,11.972 28.745,11.509Z" style="fill:rgb(232,237,243);"/>
        <path id="Rectangle.-23.-Copy" d="M28.745,15.705C28.745,15.242 28.369,14.866 27.906,14.866L7.28,14.866C6.817,14.866 6.441,15.242 6.441,15.705C6.441,16.169 6.817,16.545 7.28,16.545L27.906,16.545C28.369,16.545 28.745,16.169 28.745,15.705Z" style="fill:rgb(232,237,243);"/>
        <path id="Rectangle.-23.-Copy.-2" d="M28.745,19.901C28.745,19.438 28.369,19.062 27.906,19.062L7.28,19.062C6.817,19.062 6.441,19.438 6.441,19.901C6.441,20.365 6.817,20.741 7.28,20.741L27.906,20.741C28.369,20.741 28.745,20.365 28.745,19.901Z" style="fill:rgb(232,237,243);"/>
        <path id="Rectangle.-23.-Copy.-3" d="M33.132,39.962C33.132,39.499 32.756,39.123 32.293,39.123L22.629,39.123C22.166,39.123 21.789,39.499 21.789,39.962C21.789,40.425 22.166,40.801 22.629,40.801L32.293,40.801C32.756,40.801 33.132,40.425 33.132,39.962Z" style="fill:rgb(232,237,243);"/>
        <g id="Rectangle.-23.-Copy.-4" transform="matrix(-3.82857e-16,1,-1,-3.82857e-16,67.4228,12.5009)">
            <path d="M33.132,39.962C33.132,39.499 32.756,39.123 32.293,39.123L22.629,39.123C22.166,39.123 21.789,39.499 21.789,39.962C21.789,40.425 22.166,40.801 22.629,40.801L32.293,40.801C32.756,40.801 33.132,40.425 33.132,39.962Z" style="fill:rgb(232,237,243);"/>
        </g>
        <ellipse id="Oval.-3" cx="27.474" cy="40.077" rx="8.526" ry="8.588" style="fill:none;stroke:rgb(232,237,243);stroke-width:1px;"/>
    </g>
</svg>
