<?xml version="1.0" encoding="utf-8"?>
<!-- Generator: Adobe Illustrator 19.1.0, SVG Export Plug-In . SVG Version: 6.00 Build 0)  -->
<svg version="1.1" id="Ebene_1" xmlns="http://www.w3.org/2000/svg" xmlns:xlink="http://www.w3.org/1999/xlink" x="0px" y="0px"
	 viewBox="0 0 32 32" style="enable-background:new 0 0 32 32;" xml:space="preserve">
<style type="text/css">
	.st0{fill-rule:evenodd;clip-rule:evenodd;}
	.st1{fill:none;stroke:#000000;stroke-width:2;stroke-linecap:round;stroke-miterlimit:10;}
	.st2{fill-rule:evenodd;clip-rule:evenodd;fill:none;stroke:#000000;stroke-width:2;stroke-miterlimit:10;}
	.st3{fill:none;stroke:#000000;stroke-width:2;stroke-linecap:round;stroke-linejoin:round;stroke-miterlimit:10;}
	
		.st4{fill-rule:evenodd;clip-rule:evenodd;fill:none;stroke:#000000;stroke-width:2;stroke-linecap:round;stroke-linejoin:round;stroke-miterlimit:10;}
	.st5{fill:none;stroke:#000000;stroke-linecap:round;stroke-linejoin:round;stroke-miterlimit:10;}
	.st6{opacity:0.5;}
	.st7{fill:none;stroke:#000000;stroke-width:2;stroke-linecap:round;stroke-linejoin:round;}
	.st8{fill:none;stroke:#000000;stroke-width:2;stroke-linecap:round;stroke-linejoin:round;stroke-dasharray:2,3;}
	
		.st9{clip-path:url(#SVGID_2_);fill-rule:evenodd;clip-rule:evenodd;fill:none;stroke:#000000;stroke-width:2;stroke-linecap:round;stroke-linejoin:round;stroke-miterlimit:10;}
	
		.st10{clip-path:url(#SVGID_4_);fill-rule:evenodd;clip-rule:evenodd;fill:none;stroke:#000000;stroke-width:2;stroke-linecap:round;stroke-linejoin:round;stroke-miterlimit:10;}
	
		.st11{clip-path:url(#SVGID_6_);fill-rule:evenodd;clip-rule:evenodd;fill:none;stroke:#000000;stroke-width:2;stroke-linecap:round;stroke-linejoin:round;stroke-miterlimit:10;}
	.st12{fill:none;stroke:#000000;stroke-width:2;stroke-miterlimit:10;}
	.st13{clip-path:url(#SVGID_8_);}
	.st14{fill-rule:evenodd;clip-rule:evenodd;fill:none;}
	.st15{fill:none;stroke:#000000;stroke-miterlimit:10;}
	.st16{clip-path:url(#SVGID_10_);}
</style>
<g>
	<path d="M26.4,13.3C25.8,8.6,22,5,17.5,5c-1.6,0-3.2,0.5-4.6,1.3c-1-0.4-2-0.5-3-0.5C5.1,5.8,1,10.3,1,15.6c0,2.6,1,6,2.8,7.2
		L4.1,23H6c0.6,0,1-0.4,1-1s-0.4-1-1-1H4.7c-1-0.9-1.7-3.2-1.7-5.4c0-4.2,3.2-7.8,6.9-7.8c0.9,0,1.8,0.2,2.7,0.6l0.5,0.2l0.5-0.3
		C14.8,7.5,16.1,7,17.5,7c3.7,0,6.8,3.2,6.9,7.3l0.1,1.2l1.2-0.2c0,0,0.2,0,0.3,0c0.1,0,0.2,0,0.3,0c1.5,0,2.8,1.5,2.8,3.2
		c0,1-0.4,2.2-0.7,2.5H24c-0.6,0-1,0.4-1,1s0.4,1,1,1h4.5c1.9,0,2.5-3.1,2.5-4.5C31,15.7,28.9,13.3,26.4,13.3z"/>
	<path d="M9,16c-0.6,0-1,0.4-1,1v1c0,0.6,0.4,1,1,1s1-0.4,1-1v-1C10,16.4,9.6,16,9,16z"/>
	<path d="M9,20c-0.6,0-1,0.4-1,1v1c0,0.6,0.4,1,1,1s1-0.4,1-1v-1C10,20.4,9.6,20,9,20z"/>
	<path d="M13,16c-0.6,0-1,0.4-1,1v1c0,0.6,0.4,1,1,1c0.6,0,1-0.4,1-1v-1C14,16.4,13.6,16,13,16z"/>
	<path d="M13,20c-0.6,0-1,0.4-1,1v1c0,0.6,0.4,1,1,1c0.6,0,1-0.4,1-1v-1C14,20.4,13.6,20,13,20z"/>
	<path d="M17,16c-0.6,0-1,0.4-1,1v1c0,0.6,0.4,1,1,1s1-0.4,1-1v-1C18,16.4,17.6,16,17,16z"/>
	<path d="M17,20c-0.6,0-1,0.4-1,1v1c0,0.6,0.4,1,1,1s1-0.4,1-1v-1C18,20.4,17.6,20,17,20z"/>
	<path d="M21,16c-0.6,0-1,0.4-1,1v1c0,0.6,0.4,1,1,1s1-0.4,1-1v-1C22,16.4,21.6,16,21,16z"/>
	<path d="M21,20c-0.6,0-1,0.4-1,1v1c0,0.6,0.4,1,1,1s1-0.4,1-1v-1C22,20.4,21.6,20,21,20z"/>
	<path d="M9,24c-0.6,0-1,0.4-1,1v1c0,0.6,0.4,1,1,1s1-0.4,1-1v-1C10,24.4,9.6,24,9,24z"/>
	<path d="M13,24c-0.6,0-1,0.4-1,1v1c0,0.6,0.4,1,1,1c0.6,0,1-0.4,1-1v-1C14,24.4,13.6,24,13,24z"/>
	<path d="M17,24c-0.6,0-1,0.4-1,1v1c0,0.6,0.4,1,1,1s1-0.4,1-1v-1C18,24.4,17.6,24,17,24z"/>
	<path d="M21,24c-0.6,0-1,0.4-1,1v1c0,0.6,0.4,1,1,1s1-0.4,1-1v-1C22,24.4,21.6,24,21,24z"/>
</g>
</svg>
