<?xml version="1.0" encoding="utf-8"?>
<!-- Generator: Adobe Illustrator 16.0.4, SVG Export Plug-In . SVG Version: 6.00 Build 0)  -->
<!DOCTYPE svg PUBLIC "-//W3C//DTD SVG 1.0//EN" "http://www.w3.org/TR/2001/REC-SVG-20010904/DTD/svg10.dtd">
<svg version="1.0" id="Ebene_1" xmlns="http://www.w3.org/2000/svg" xmlns:xlink="http://www.w3.org/1999/xlink" x="0px" y="0px"
	 width="506px" height="514.25px" viewBox="0 0 506 514.25" enable-background="new 0 0 506 514.25" xml:space="preserve">
<g>
	<g>
		<path d="M279.016,40.835c29.9,0,53.274,7.331,70.135,21.986c16.853,14.662,25.283,34.737,25.283,60.24
			c0,19.059-4.328,35.768-12.972,50.127c-8.649,14.366-22.501,24.184-41.553,29.46v0.879c9.083,1.759,16.489,4.692,22.205,8.794
			c5.717,4.108,10.258,9.014,13.632,14.73c3.366,5.716,5.86,12.092,7.475,19.127c1.607,7.036,2.858,14.367,3.737,21.986
			c0.584,7.626,1.024,15.39,1.319,23.305c0.289,7.915,1.023,15.686,2.198,23.305c1.168,7.626,2.858,14.882,5.058,21.766
			c2.198,6.892,5.496,12.972,9.893,18.248h-46.609c-2.934-3.223-4.912-7.619-5.936-13.191c-1.03-5.565-1.69-11.797-1.979-18.688
			c-0.296-6.885-0.591-14.291-0.88-22.206c-0.295-7.914-1.175-15.678-2.638-23.305c-1.175-7.619-2.639-14.874-4.397-21.765
			c-1.759-6.884-4.549-12.896-8.354-18.028c-3.813-5.125-8.794-9.234-14.95-12.312c-6.156-3.078-14.366-4.617-24.624-4.617H173.046
			v134.112h-41.773V40.835H279.016z M287.811,183.302c8.794-1.463,16.489-4.322,23.085-8.575
			c6.596-4.246,11.872-9.962,15.829-17.148c3.958-7.18,5.937-16.489,5.937-27.922c0-15.83-4.397-28.726-13.191-38.694
			c-8.794-9.962-23.017-14.95-42.652-14.95H173.046V185.5h87.062C269.782,185.5,279.016,184.772,287.811,183.302z"/>
	</g>
	<g>
		<path d="M123.953,367.037h16.049l25.058,39.277l26.185-39.277h14.922l-33.224,48.851l35.335,51.665h-16.331l-27.029-41.529
			l-27.874,41.529h-14.922l34.913-51.665L123.953,367.037z"/>
		<path d="M237.7,367.037l31.675,84.467l31.815-84.467h18.302v100.516h-12.67V383.93h-0.282l-31.394,83.622h-11.402l-31.394-83.622
			h-0.282v83.622h-12.67V367.037H237.7z"/>
		<path d="M355.107,367.037v89.253h53.214v11.263h-66.588V367.037H355.107z"/>
	</g>
</g>
</svg>
