<?xml version="1.0" encoding="utf-8"?>
<!-- Generator: Adobe Illustrator 19.1.0, SVG Export Plug-In . SVG Version: 6.00 Build 0)  -->
<svg version="1.1" id="Ebene_1" xmlns="http://www.w3.org/2000/svg" xmlns:xlink="http://www.w3.org/1999/xlink" x="0px" y="0px"
	 viewBox="0 0 32 32" style="enable-background:new 0 0 32 32;" xml:space="preserve">
<style type="text/css">
	.st0{fill-rule:evenodd;clip-rule:evenodd;}
	.st1{fill:none;stroke:#000000;stroke-width:2;stroke-linecap:round;stroke-miterlimit:10;}
	.st2{fill-rule:evenodd;clip-rule:evenodd;fill:none;stroke:#000000;stroke-width:2;stroke-miterlimit:10;}
	.st3{fill:none;stroke:#000000;stroke-width:2;stroke-linecap:round;stroke-linejoin:round;stroke-miterlimit:10;}
	
		.st4{fill-rule:evenodd;clip-rule:evenodd;fill:none;stroke:#000000;stroke-width:2;stroke-linecap:round;stroke-linejoin:round;stroke-miterlimit:10;}
	.st5{fill:none;stroke:#000000;stroke-linecap:round;stroke-linejoin:round;stroke-miterlimit:10;}
	.st6{opacity:0.5;}
	.st7{fill:none;stroke:#000000;stroke-width:2;stroke-linecap:round;stroke-linejoin:round;}
	.st8{fill:none;stroke:#000000;stroke-width:2;stroke-linecap:round;stroke-linejoin:round;stroke-dasharray:2,3;}
	
		.st9{clip-path:url(#SVGID_2_);fill-rule:evenodd;clip-rule:evenodd;fill:none;stroke:#000000;stroke-width:2;stroke-linecap:round;stroke-linejoin:round;stroke-miterlimit:10;}
	
		.st10{clip-path:url(#SVGID_4_);fill-rule:evenodd;clip-rule:evenodd;fill:none;stroke:#000000;stroke-width:2;stroke-linecap:round;stroke-linejoin:round;stroke-miterlimit:10;}
	
		.st11{clip-path:url(#SVGID_6_);fill-rule:evenodd;clip-rule:evenodd;fill:none;stroke:#000000;stroke-width:2;stroke-linecap:round;stroke-linejoin:round;stroke-miterlimit:10;}
	.st12{fill:none;stroke:#000000;stroke-width:2;stroke-miterlimit:10;}
	.st13{clip-path:url(#SVGID_8_);}
	.st14{fill-rule:evenodd;clip-rule:evenodd;fill:none;}
	.st15{fill:none;stroke:#000000;stroke-miterlimit:10;}
	.st16{clip-path:url(#SVGID_10_);}
</style>
<g>
	<path d="M26.7,6.3c-0.4-0.4-1-0.4-1.4-0.1l-20,18c-0.4,0.4-0.4,1-0.1,1.4C5.5,25.9,5.7,26,6,26c0.2,0,0.5-0.1,0.7-0.3l20-18
		C27.1,7.4,27.1,6.7,26.7,6.3z"/>
	<path d="M7,15.4c0.6,0,1-0.4,1-1v-2.2c0-0.6-0.4-1-1-1s-1,0.4-1,1v2.2C6,14.9,6.4,15.4,7,15.4z"/>
	<path d="M7,22c0.6,0,1-0.4,1-1v-3.4c0-0.6-0.4-1-1-1s-1,0.4-1,1V21C6,21.6,6.4,22,7,22z"/>
	<path d="M7,10c0.6,0,1-0.4,1-1c0.6,0,1-0.4,1-1S8.6,7,8,7H7C6.4,7,6,7.4,6,8v1C6,9.6,6.4,10,7,10z"/>
	<path d="M10.7,9h1.8c0.6,0,1-0.4,1-1s-0.4-1-1-1h-1.8c-0.6,0-1,0.4-1,1S10.1,9,10.7,9z"/>
	<path d="M15.1,9h1.8c0.6,0,1-0.4,1-1s-0.4-1-1-1h-1.8c-0.6,0-1,0.4-1,1S14.6,9,15.1,9z"/>
	<path d="M19.6,9h1.8c0.6,0,1-0.4,1-1s-0.4-1-1-1h-1.8c-0.6,0-1,0.4-1,1S19,9,19.6,9z"/>
	<path d="M25,10c-0.6,0-1,0.4-1,1v3.4c0,0.6,0.4,1,1,1s1-0.4,1-1V11C26,10.4,25.6,10,25,10z"/>
	<path d="M25,16.6c-0.6,0-1,0.4-1,1v2.2c0,0.6,0.4,1,1,1s1-0.4,1-1v-2.2C26,17.1,25.6,16.6,25,16.6z"/>
	<path d="M25,22c-0.6,0-1,0.4-1,1c-0.6,0-1,0.4-1,1s0.4,1,1,1h1c0.6,0,1-0.4,1-1v-1C26,22.4,25.6,22,25,22z"/>
	<path d="M16.9,23h-1.8c-0.6,0-1,0.4-1,1s0.4,1,1,1h1.8c0.6,0,1-0.4,1-1S17.4,23,16.9,23z"/>
	<path d="M21.3,23h-1.8c-0.6,0-1,0.4-1,1s0.4,1,1,1h1.8c0.6,0,1-0.4,1-1S21.9,23,21.3,23z"/>
	<path d="M12.4,23h-1.8c-0.6,0-1,0.4-1,1s0.4,1,1,1h1.8c0.6,0,1-0.4,1-1S13,23,12.4,23z"/>
</g>
</svg>
