<?xml version="1.0" encoding="utf-8"?>
<!-- Generator: Adobe Illustrator 16.0.4, SVG Export Plug-In . SVG Version: 6.00 Build 0)  -->
<!DOCTYPE svg PUBLIC "-//W3C//DTD SVG 1.1//EN" "http://www.w3.org/Graphics/SVG/1.1/DTD/svg11.dtd">
<svg version="1.1" id="Ebene_1" xmlns="http://www.w3.org/2000/svg" xmlns:xlink="http://www.w3.org/1999/xlink" x="0px" y="0px"
	 width="506px" height="514.25px" viewBox="0 0 506 514.25" enable-background="new 0 0 506 514.25" xml:space="preserve">
<g>
	<g enable-background="new    ">
		<path d="M298.535,83.707c-13.926-10.113-31.734-15.17-53.424-15.17c-8.794,0-17.444,0.879-25.943,2.638
			c-8.506,1.759-16.049,4.693-22.645,8.795c-6.596,4.108-11.873,9.604-15.83,16.489c-3.958,6.891-5.937,15.465-5.937,25.723
			c0,9.674,2.858,17.52,8.575,23.524c5.716,6.012,13.335,10.925,22.865,14.73c9.522,3.813,20.295,6.967,32.319,9.454
			c12.017,2.494,24.252,5.208,36.715,8.135c12.457,2.934,24.693,6.376,36.717,10.333c12.016,3.957,22.789,9.31,32.318,16.05
			c9.522,6.746,17.148,15.245,22.865,25.503c5.717,10.265,8.574,23.16,8.574,38.694c0,16.709-3.737,31-11.213,42.872
			c-7.475,11.872-17.08,21.546-28.801,29.021c-11.729,7.476-24.844,12.903-39.354,16.27c-14.512,3.367-28.953,5.057-43.312,5.057
			c-17.589,0-34.229-2.198-49.907-6.596c-15.686-4.396-29.461-11.062-41.333-20.007c-11.872-8.938-21.257-20.371-28.142-34.297
			c-6.891-13.92-10.333-30.409-10.333-49.468h39.574c0,13.191,2.563,24.555,7.695,34.077c5.125,9.529,11.873,17.369,20.227,23.524
			c8.354,6.156,18.097,10.705,29.241,13.632c11.137,2.934,22.569,4.396,34.297,4.396c9.378,0,18.832-0.879,28.361-2.638
			c9.522-1.759,18.097-4.762,25.724-9.015c7.619-4.246,13.775-10.037,18.467-17.368c4.687-7.324,7.036-16.709,7.036-28.142
			c0-10.842-2.858-19.636-8.574-26.383c-5.716-6.74-13.343-12.236-22.865-16.489c-9.529-4.246-20.302-7.694-32.319-10.333
			c-12.023-2.639-24.259-5.346-36.715-8.135c-12.463-2.782-24.699-6.005-36.716-9.674c-12.023-3.662-22.796-8.499-32.319-14.51
			c-9.529-6.005-17.149-13.775-22.865-23.306c-5.716-9.522-8.575-21.47-8.575-35.836c0-15.83,3.222-29.529,9.674-41.113
			c6.444-11.576,15.019-21.105,25.723-28.581c10.697-7.475,22.865-13.04,36.496-16.709c13.631-3.662,27.626-5.497,41.992-5.497
			c16.119,0,31.068,1.91,44.851,5.716c13.775,3.813,25.867,9.825,36.275,18.028c10.402,8.21,18.613,18.543,24.624,31
			c6.005,12.463,9.303,27.337,9.894,44.63H322.94C320.59,110.165,312.455,93.82,298.535,83.707z"/>
	</g>
	<g enable-background="new    ">
		<path d="M113.886,371.037h16.049l25.058,39.277l26.185-39.277H196.1l-33.224,48.851l35.335,51.665h-16.331l-27.029-41.529
			l-27.874,41.529h-14.922l34.913-51.665L113.886,371.037z"/>
		<path d="M227.634,371.037l31.675,84.467l31.815-84.467h18.302v100.516h-12.671V387.93h-0.281l-31.394,83.622h-11.402
			l-31.394-83.622h-0.282v83.622h-12.67V371.037H227.634z"/>
		<path d="M345.04,371.037v89.253h53.214v11.263h-66.588V371.037H345.04z"/>
	</g>
</g>
</svg>
