<?xml version="1.0" encoding="utf-8"?>
<!-- Generator: Adobe Illustrator 16.0.4, SVG Export Plug-In . SVG Version: 6.00 Build 0)  -->
<!DOCTYPE svg PUBLIC "-//W3C//DTD SVG 1.1//EN" "http://www.w3.org/Graphics/SVG/1.1/DTD/svg11.dtd">
<svg version="1.1" id="Ebene_1" xmlns="http://www.w3.org/2000/svg" xmlns:xlink="http://www.w3.org/1999/xlink" x="0px" y="0px"
	 width="520px" height="514.25px" viewBox="0 0 520 514.25" enable-background="new 0 0 520 514.25" xml:space="preserve">
<g>
	<path d="M472,54.125v386H48v-386H472 M502,24.125H18v446h484V24.125L502,24.125z"/>
</g>
<rect x="197.25" y="37.375" width="25.996" height="74"/>
<rect x="242.75" y="40.875" width="25.996" height="91.5"/>
<rect x="288.252" y="37.375" width="25.996" height="74"/>
<rect x="333.752" y="40.875" width="25.996" height="91.5"/>
<rect x="379.252" y="37.375" width="25.996" height="74"/>
<rect x="424.754" y="37.375" width="25.996" height="95"/>
<rect x="34.995" y="166.875" width="74" height="25.996"/>
<rect x="38.495" y="212.375" width="91.5" height="25.996"/>
<rect x="34.995" y="257.875" width="74" height="25.996"/>
<rect x="38.495" y="303.375" width="91.5" height="25.996"/>
<rect x="34.995" y="348.877" width="74" height="25.996"/>
<rect x="34.995" y="394.379" width="95" height="25.994"/>
</svg>
