<?xml version="1.0" encoding="utf-8"?>
<!-- Generator: Adobe Illustrator 16.0.4, SVG Export Plug-In . SVG Version: 6.00 Build 0)  -->
<!DOCTYPE svg PUBLIC "-//W3C//DTD SVG 1.1//EN" "http://www.w3.org/Graphics/SVG/1.1/DTD/svg11.dtd">
<svg version="1.1" id="Ebene_1" xmlns="http://www.w3.org/2000/svg" xmlns:xlink="http://www.w3.org/1999/xlink" x="0px" y="0px"
	 width="520px" height="514.25px" viewBox="0 0 520 514.25" enable-background="new 0 0 520 514.25" xml:space="preserve">
<g>
	<path d="M439.5,74.124v366h-366v-366H439.5 M469.5,44.124h-426v426h426V44.124L469.5,44.124z"/>
</g>
<rect x="19" y="19.624" width="49" height="49"/>
<rect x="19" y="445.625" width="49" height="49"/>
<rect x="445" y="445.625" width="49" height="49"/>
<rect x="445" y="19.624" width="49" height="49"/>
<g>
	<path d="M263.673,283.938v-29.189l105.39-0.17V346.9c-16.182,12.898-32.869,22.6-50.064,29.104
		c-17.199,6.505-34.849,9.759-52.949,9.759c-24.438,0-46.644-5.232-66.61-15.697c-19.97-10.465-35.044-25.598-45.227-45.397
		c-10.183-19.798-15.274-41.919-15.274-66.355c0-24.21,5.062-46.812,15.188-67.8c10.125-20.985,24.693-36.572,43.7-46.754
		c19.008-10.183,40.9-15.273,65.678-15.273c17.988,0,34.252,2.914,48.791,8.74c14.537,5.828,25.937,13.944,34.196,24.353
		c8.257,10.41,14.535,23.987,18.838,40.729l-29.699,8.147c-3.733-12.67-8.374-22.627-13.916-29.869
		c-5.545-7.24-13.466-13.039-23.76-17.396c-10.297-4.354-21.722-6.534-34.281-6.534c-15.047,0-28.06,2.292-39.033,6.874
		c-10.975,4.583-19.829,10.607-26.559,18.074c-6.732,7.467-11.964,15.671-15.698,24.608c-6.338,15.388-9.504,32.074-9.504,50.064
		c0,22.175,3.818,40.729,11.456,55.664c7.636,14.935,18.752,26.024,33.348,33.263c14.595,7.242,30.093,10.861,46.501,10.861
		c14.254,0,28.17-2.741,41.746-8.23c13.578-5.486,23.871-11.341,30.888-17.564v-46.331H263.673z"/>
</g>
</svg>
