<?xml version="1.0" encoding="utf-8"?>
<!-- Generator: Adobe Illustrator 19.1.0, SVG Export Plug-In . SVG Version: 6.00 Build 0)  -->
<svg version="1.1" id="Ebene_1" xmlns="http://www.w3.org/2000/svg" xmlns:xlink="http://www.w3.org/1999/xlink" x="0px" y="0px"
	 viewBox="0 0 32 32" style="enable-background:new 0 0 32 32;" xml:space="preserve">
<style type="text/css">
	.st0{fill-rule:evenodd;clip-rule:evenodd;}
	.st1{fill:none;stroke:#000000;stroke-width:2;stroke-linecap:round;stroke-miterlimit:10;}
	.st2{fill-rule:evenodd;clip-rule:evenodd;fill:none;stroke:#000000;stroke-width:2;stroke-miterlimit:10;}
	.st3{fill:none;stroke:#000000;stroke-width:2;stroke-linecap:round;stroke-linejoin:round;stroke-miterlimit:10;}
	
		.st4{fill-rule:evenodd;clip-rule:evenodd;fill:none;stroke:#000000;stroke-width:2;stroke-linecap:round;stroke-linejoin:round;stroke-miterlimit:10;}
	.st5{fill:none;stroke:#000000;stroke-linecap:round;stroke-linejoin:round;stroke-miterlimit:10;}
	.st6{opacity:0.5;}
	.st7{fill:none;stroke:#000000;stroke-width:2;stroke-linecap:round;stroke-linejoin:round;}
	.st8{fill:none;stroke:#000000;stroke-width:2;stroke-linecap:round;stroke-linejoin:round;stroke-dasharray:2,3;}
	
		.st9{clip-path:url(#SVGID_2_);fill-rule:evenodd;clip-rule:evenodd;fill:none;stroke:#000000;stroke-width:2;stroke-linecap:round;stroke-linejoin:round;stroke-miterlimit:10;}
	
		.st10{clip-path:url(#SVGID_4_);fill-rule:evenodd;clip-rule:evenodd;fill:none;stroke:#000000;stroke-width:2;stroke-linecap:round;stroke-linejoin:round;stroke-miterlimit:10;}
	
		.st11{clip-path:url(#SVGID_6_);fill-rule:evenodd;clip-rule:evenodd;fill:none;stroke:#000000;stroke-width:2;stroke-linecap:round;stroke-linejoin:round;stroke-miterlimit:10;}
	.st12{fill:none;stroke:#000000;stroke-width:2;stroke-miterlimit:10;}
	.st13{clip-path:url(#SVGID_8_);}
	.st14{fill-rule:evenodd;clip-rule:evenodd;fill:none;}
	.st15{fill:none;stroke:#000000;stroke-miterlimit:10;}
	.st16{clip-path:url(#SVGID_10_);}
</style>
<path d="M27,19h-0.2L25,10.8c-0.1-0.5-0.5-0.8-1-0.8H12c-0.4,0-0.7,0.2-0.9,0.6L9.4,14H7.5c-1.3,0-2.5,0.9-2.7,2.2L4,19.8
	c-0.1,0.3,0,0.6,0.2,0.8C4.4,20.9,4.7,21,5,21h3.2c0.4,1.2,1.5,2,2.8,2s2.4-0.8,2.8-2h4.4c0.4,1.2,1.5,2,2.8,2s2.4-0.8,2.8-2H27
	c0.6,0,1-0.4,1-1S27.6,19,27,19z M21,17c-1.3,0-2.4,0.8-2.8,2H18v-3l6.1,0l0.7,3.1h-0.9C23.4,17.8,22.3,17,21,17z M23.9,15L18,15v-3
	h5.2L23.9,15z M12.6,12H17v3l-5.9,0L12.6,12z M6.7,16.6C6.8,16.3,7.1,16,7.5,16H10c0,0,0,0,0.1,0l6.9,0v3h-3.2c-0.4-1.2-1.5-2-2.8-2
	s-2.4,0.8-2.8,2h-2L6.7,16.6z M11,21c-0.6,0-1-0.4-1-1s0.4-1,1-1s1,0.4,1,1S11.6,21,11,21z M21,21c-0.6,0-1-0.4-1-1s0.4-1,1-1
	s1,0.4,1,1S21.6,21,21,21z"/>
</svg>
