<?xml version="1.0" encoding="utf-8"?>
<!-- Generator: Adobe Illustrator 19.1.0, SVG Export Plug-In . SVG Version: 6.00 Build 0)  -->
<svg version="1.1" id="Ebene_1" xmlns="http://www.w3.org/2000/svg" xmlns:xlink="http://www.w3.org/1999/xlink" x="0px" y="0px"
	 viewBox="0 0 32 32" style="enable-background:new 0 0 32 32;" xml:space="preserve">
<style type="text/css">
	.st0{fill-rule:evenodd;clip-rule:evenodd;}
	.st1{fill:none;stroke:#000000;stroke-width:2;stroke-linecap:round;stroke-miterlimit:10;}
	.st2{fill-rule:evenodd;clip-rule:evenodd;fill:none;stroke:#000000;stroke-width:2;stroke-miterlimit:10;}
	.st3{fill:none;stroke:#000000;stroke-width:2;stroke-linecap:round;stroke-linejoin:round;stroke-miterlimit:10;}
	
		.st4{fill-rule:evenodd;clip-rule:evenodd;fill:none;stroke:#000000;stroke-width:2;stroke-linecap:round;stroke-linejoin:round;stroke-miterlimit:10;}
	.st5{fill:none;stroke:#000000;stroke-linecap:round;stroke-linejoin:round;stroke-miterlimit:10;}
	.st6{opacity:0.5;}
	.st7{fill:none;stroke:#000000;stroke-width:2;stroke-linecap:round;stroke-linejoin:round;}
	.st8{fill:none;stroke:#000000;stroke-width:2;stroke-linecap:round;stroke-linejoin:round;stroke-dasharray:2,3;}
	
		.st9{clip-path:url(#SVGID_2_);fill-rule:evenodd;clip-rule:evenodd;fill:none;stroke:#000000;stroke-width:2;stroke-linecap:round;stroke-linejoin:round;stroke-miterlimit:10;}
	
		.st10{clip-path:url(#SVGID_4_);fill-rule:evenodd;clip-rule:evenodd;fill:none;stroke:#000000;stroke-width:2;stroke-linecap:round;stroke-linejoin:round;stroke-miterlimit:10;}
	
		.st11{clip-path:url(#SVGID_6_);fill-rule:evenodd;clip-rule:evenodd;fill:none;stroke:#000000;stroke-width:2;stroke-linecap:round;stroke-linejoin:round;stroke-miterlimit:10;}
	.st12{fill:none;stroke:#000000;stroke-width:2;stroke-miterlimit:10;}
	.st13{clip-path:url(#SVGID_8_);}
	.st14{fill-rule:evenodd;clip-rule:evenodd;fill:none;}
	.st15{fill:none;stroke:#000000;stroke-miterlimit:10;}
	.st16{clip-path:url(#SVGID_10_);}
</style>
<g>
	<path class="st0" d="M27,15h-2.1c-0.2-1.7-0.9-3.3-1.9-4.6l1.5-1.5c0.4-0.4,0.4-1,0-1.4c-0.4-0.4-1-0.4-1.4,0L21.6,9
		c-1.3-1-2.9-1.7-4.6-1.9V5c0-0.6-0.4-1-1-1s-1,0.4-1,1v2.1c-1.7,0.2-3.3,0.9-4.6,1.9L8.9,7.5c-0.4-0.4-1-0.4-1.4,0s-0.4,1,0,1.4
		L9,10.4c-1,1.3-1.7,2.9-1.9,4.6H5c-0.6,0-1,0.4-1,1s0.4,1,1,1h2.1c0.2,1.7,0.9,3.3,1.9,4.6l-1.5,1.5c-0.4,0.4-0.4,1,0,1.4
		c0.2,0.2,0.5,0.3,0.7,0.3s0.5-0.1,0.7-0.3l1.5-1.5c1.3,1,2.9,1.7,4.6,1.9V27c0,0.6,0.4,1,1,1s1-0.4,1-1v-2.1
		c1.7-0.2,3.3-0.9,4.6-1.9l1.5,1.5c0.2,0.2,0.5,0.3,0.7,0.3s0.5-0.1,0.7-0.3c0.4-0.4,0.4-1,0-1.4L23,21.6c1-1.3,1.7-2.9,1.9-4.6H27
		c0.6,0,1-0.4,1-1S27.6,15,27,15z M16,23c-3.9,0-7-3.1-7-7s3.1-7,7-7c3.9,0,7,3.1,7,7S19.9,23,16,23z"/>
	<path class="st0" d="M16,11v10c2.8,0,5-2.2,5-5C21,13.2,18.8,11,16,11z"/>
</g>
</svg>
