<?xml version="1.0" encoding="utf-8"?>
<!-- Generator: Adobe Illustrator 19.1.0, SVG Export Plug-In . SVG Version: 6.00 Build 0)  -->
<svg version="1.1" id="Ebene_1" xmlns="http://www.w3.org/2000/svg" xmlns:xlink="http://www.w3.org/1999/xlink" x="0px" y="0px"
	 viewBox="0 0 32 32" style="enable-background:new 0 0 32 32;" xml:space="preserve">
<style type="text/css">
	.st0{fill-rule:evenodd;clip-rule:evenodd;}
	.st1{fill:none;stroke:#000000;stroke-width:2;stroke-linecap:round;stroke-miterlimit:10;}
	.st2{fill-rule:evenodd;clip-rule:evenodd;fill:none;stroke:#000000;stroke-width:2;stroke-miterlimit:10;}
	.st3{fill:none;stroke:#000000;stroke-width:2;stroke-linecap:round;stroke-linejoin:round;stroke-miterlimit:10;}
	
		.st4{fill-rule:evenodd;clip-rule:evenodd;fill:none;stroke:#000000;stroke-width:2;stroke-linecap:round;stroke-linejoin:round;stroke-miterlimit:10;}
	.st5{fill:none;stroke:#000000;stroke-linecap:round;stroke-linejoin:round;stroke-miterlimit:10;}
	.st6{opacity:0.5;}
	.st7{fill:none;stroke:#000000;stroke-width:2;stroke-linecap:round;stroke-linejoin:round;}
	.st8{fill:none;stroke:#000000;stroke-width:2;stroke-linecap:round;stroke-linejoin:round;stroke-dasharray:2,3;}
	
		.st9{clip-path:url(#SVGID_2_);fill-rule:evenodd;clip-rule:evenodd;fill:none;stroke:#000000;stroke-width:2;stroke-linecap:round;stroke-linejoin:round;stroke-miterlimit:10;}
	
		.st10{clip-path:url(#SVGID_4_);fill-rule:evenodd;clip-rule:evenodd;fill:none;stroke:#000000;stroke-width:2;stroke-linecap:round;stroke-linejoin:round;stroke-miterlimit:10;}
	
		.st11{clip-path:url(#SVGID_6_);fill-rule:evenodd;clip-rule:evenodd;fill:none;stroke:#000000;stroke-width:2;stroke-linecap:round;stroke-linejoin:round;stroke-miterlimit:10;}
	.st12{fill:none;stroke:#000000;stroke-width:2;stroke-miterlimit:10;}
	.st13{clip-path:url(#SVGID_8_);}
	.st14{fill-rule:evenodd;clip-rule:evenodd;fill:none;}
	.st15{fill:none;stroke:#000000;stroke-miterlimit:10;}
	.st16{clip-path:url(#SVGID_10_);}
</style>
<path d="M27,15h-3c0,0,0,0-0.1,0c-0.2-1.5-0.8-2.8-1.6-3.9c0,0,0,0,0.1,0l2.1-2.1c0.4-0.4,0.4-1,0-1.4c-0.4-0.4-1-0.4-1.4,0L21,9.6
	c0,0,0,0,0,0.1c-1.1-0.9-2.5-1.4-3.9-1.6c0,0,0,0,0-0.1V5c0-0.6-0.4-1-1-1s-1,0.4-1,1v3c0,0,0,0,0,0.1c-1.5,0.2-2.8,0.8-3.9,1.6
	c0,0,0,0,0-0.1L8.9,7.5c-0.4-0.4-1-0.4-1.4,0s-0.4,1,0,1.4l2.1,2.1c0,0,0,0,0.1,0c-0.9,1.1-1.4,2.5-1.6,3.9c0,0,0,0-0.1,0H5
	c-0.6,0-1,0.4-1,1s0.4,1,1,1h3c0,0,0,0,0.1,0c0.2,1.5,0.8,2.8,1.6,3.9c0,0,0,0-0.1,0l-2.1,2.1c-0.4,0.4-0.4,1,0,1.4
	c0.2,0.2,0.5,0.3,0.7,0.3s0.5-0.1,0.7-0.3l2.1-2.1c0,0,0,0,0-0.1c1.1,0.9,2.5,1.4,3.9,1.6c0,0,0,0,0,0.1v3c0,0.6,0.4,1,1,1
	s1-0.4,1-1v-3c0,0,0,0,0-0.1c1.5-0.2,2.8-0.8,3.9-1.6c0,0,0,0,0,0.1l2.1,2.1c0.2,0.2,0.5,0.3,0.7,0.3s0.5-0.1,0.7-0.3
	c0.4-0.4,0.4-1,0-1.4l-2.1-2.1c0,0,0,0-0.1,0c0.9-1.1,1.4-2.5,1.6-3.9c0,0,0,0,0.1,0h3c0.6,0,1-0.4,1-1S27.6,15,27,15z M16,22
	c-3.3,0-6-2.7-6-6c0-3.3,2.7-6,6-6s6,2.7,6,6C22,19.3,19.3,22,16,22z"/>
</svg>
