<svg xmlns="http://www.w3.org/2000/svg" viewBox="0 0 64 48" enable-background="new 0 0 64 48"><g fill="none" stroke="#000" stroke-linejoin="round" stroke-linecap="round" stroke-width="2" stroke-miterlimit="10"><path d="m12 45v-32h18v32"/><path d="m52 45v-28h-22v28"/><path d="m22 13v-10h22v14"/></g><path d="m34 21h2v2h-2z"/><path d="m38 21h2v2h-2z"/><path d="m20 17h2v2h-2z"/><path d="m16 17h2v2h-2z"/><path d="m16 21h2v2h-2z"/><path d="m20 21h2v2h-2z"/><path d="m24 21h2v2h-2z"/><path d="m16 25h2v2h-2z"/><path d="m20 25h2v2h-2z"/><path d="m24 25h2v2h-2z"/><path d="m24 17h2v2h-2z"/><path d="m38 7h2v2h-2z"/><path d="m34 7h2v2h-2z"/><path d="m38 11h2v2h-2z"/><path d="m34 11h2v2h-2z"/><path d="m30 7h2v2h-2z"/><path d="m26 7h2v2h-2z"/><path d="m42 21h2v2h-2z"/><path d="m34 25h2v2h-2z"/><path d="m38 25h2v2h-2z"/><path d="m42 25h2v2h-2z"/><path d="m46 21h2v2h-2z"/><path d="m46 25h2v2h-2z"/><g fill="none" stroke="#000" stroke-linejoin="round" stroke-linecap="round" stroke-width="2" stroke-miterlimit="10"><path d="m4 45h56"/><path d="m41 36.9c-1.7 0-3 1.3-3 3v5.1h6v-5.1c0-1.6-1.3-3-3-3z"/></g></svg>