<?xml version="1.0" encoding="utf-8"?>
<!-- Generator: Adobe Illustrator 19.1.0, SVG Export Plug-In . SVG Version: 6.00 Build 0)  -->
<svg version="1.1" id="Ebene_1" xmlns="http://www.w3.org/2000/svg" xmlns:xlink="http://www.w3.org/1999/xlink" x="0px" y="0px"
	 viewBox="0 0 64 48" style="enable-background:new 0 0 64 48;" xml:space="preserve">
<style type="text/css">
	.st0{fill-rule:evenodd;clip-rule:evenodd;}
	.st1{fill:none;stroke:#000000;stroke-width:2;stroke-linejoin:round;stroke-miterlimit:10;}
	.st2{fill:none;stroke:#000000;stroke-width:2;stroke-linecap:round;stroke-miterlimit:10;}
	.st3{fill-rule:evenodd;clip-rule:evenodd;fill:none;stroke:#000000;stroke-width:2;stroke-miterlimit:10;}
	.st4{fill:none;stroke:#000000;stroke-width:2;stroke-linecap:round;stroke-linejoin:round;stroke-miterlimit:10;}
	
		.st5{fill-rule:evenodd;clip-rule:evenodd;fill:none;stroke:#000000;stroke-width:2;stroke-linecap:round;stroke-linejoin:round;stroke-miterlimit:10;}
	.st6{fill:none;stroke:#000000;stroke-linecap:round;stroke-linejoin:round;stroke-miterlimit:10;}
	.st7{opacity:0.5;}
	.st8{fill-rule:evenodd;clip-rule:evenodd;fill:none;stroke:#000000;stroke-width:2;stroke-linecap:round;stroke-miterlimit:10;}
	.st9{fill:none;stroke:#000000;stroke-width:2;stroke-linecap:round;stroke-linejoin:round;}
	.st10{fill:none;stroke:#000000;stroke-width:2;stroke-linecap:round;stroke-linejoin:round;stroke-dasharray:2,3;}
	
		.st11{clip-path:url(#SVGID_2_);fill-rule:evenodd;clip-rule:evenodd;fill:none;stroke:#000000;stroke-width:2;stroke-linecap:round;stroke-linejoin:round;stroke-miterlimit:10;}
	
		.st12{clip-path:url(#SVGID_4_);fill-rule:evenodd;clip-rule:evenodd;fill:none;stroke:#000000;stroke-width:2;stroke-linecap:round;stroke-linejoin:round;stroke-miterlimit:10;}
	
		.st13{clip-path:url(#SVGID_6_);fill-rule:evenodd;clip-rule:evenodd;fill:none;stroke:#000000;stroke-width:2;stroke-linecap:round;stroke-linejoin:round;stroke-miterlimit:10;}
	
		.st14{clip-path:url(#SVGID_8_);fill-rule:evenodd;clip-rule:evenodd;fill:none;stroke:#000000;stroke-width:2;stroke-linecap:round;stroke-linejoin:round;stroke-miterlimit:10;}
	
		.st15{clip-path:url(#SVGID_10_);fill-rule:evenodd;clip-rule:evenodd;fill:none;stroke:#000000;stroke-width:2;stroke-linecap:round;stroke-linejoin:round;stroke-miterlimit:10;}
	.st16{fill:none;stroke:#000000;stroke-width:2;stroke-miterlimit:10;}
	.st17{clip-path:url(#SVGID_12_);}
	.st18{fill-rule:evenodd;clip-rule:evenodd;fill:none;}
</style>
<g>
	<polyline class="st4" points="12,45 12,13 30,13 30,45 	"/>
	<polyline class="st4" points="52,45 52,17 30,17 30,45 	"/>
	<polyline class="st4" points="22,13 22,3 44,3 44,17 	"/>
	<rect x="34" y="21" width="2" height="2"/>
	<rect x="38" y="21" width="2" height="2"/>
	<rect x="20" y="17" width="2" height="2"/>
	<rect x="16" y="17" width="2" height="2"/>
	<rect x="16" y="21" width="2" height="2"/>
	<rect x="20" y="21" width="2" height="2"/>
	<rect x="24" y="21" width="2" height="2"/>
	<rect x="16" y="25" width="2" height="2"/>
	<rect x="20" y="25" width="2" height="2"/>
	<rect x="24" y="25" width="2" height="2"/>
	<rect x="24" y="17" width="2" height="2"/>
	<rect x="38" y="7" width="2" height="2"/>
	<rect x="34" y="7" width="2" height="2"/>
	<rect x="38" y="11" width="2" height="2"/>
	<rect x="34" y="11" width="2" height="2"/>
	<rect x="30" y="7" width="2" height="2"/>
	<rect x="26" y="7" width="2" height="2"/>
	<rect x="42" y="21" width="2" height="2"/>
	<rect x="34" y="25" width="2" height="2"/>
	<rect x="38" y="25" width="2" height="2"/>
	<rect x="42" y="25" width="2" height="2"/>
	<rect x="46" y="21" width="2" height="2"/>
	<rect x="46" y="25" width="2" height="2"/>
</g>
<line class="st4" x1="4" y1="45" x2="60" y2="45"/>
<path class="st4" d="M41,36.9L41,36.9c-1.7,0-3,1.3-3,3V45h6v-5.1C44,38.3,42.7,36.9,41,36.9z"/>
</svg>
