<svg xmlns="http://www.w3.org/2000/svg" viewBox="0 0 32 24" enable-background="new 0 0 32 24"><g fill="none" stroke="#000" stroke-linejoin="round" stroke-linecap="round" stroke-width="2" stroke-miterlimit="10"><path d="m6 22v-16h9v16"/><path d="m26 22v-14h-11v14"/><path d="m11 6v-5h11v7"/></g><path d="m17 10h1v1h-1z"/><path d="m19 10h1v1h-1z"/><path d="m10 8h1v1h-1z"/><path d="m8 8h1v1h-1z"/><path d="m8 10h1v1h-1z"/><path d="m10 10h1v1h-1z"/><path d="m12 10h1v1h-1z"/><path d="m8 12h1v1h-1z"/><path d="m10 12h1v1h-1z"/><path d="m12 12h1v1h-1z"/><path d="m12 8h1v1h-1z"/><path d="m19 3h1v1h-1z"/><path d="m17 3h1v1h-1z"/><path d="m19 5h1v1h-1z"/><path d="m17 5h1v1h-1z"/><path d="m15 3h1v1h-1z"/><path d="m13 3h1v1h-1z"/><path d="m21 10h1v1h-1z"/><path d="m17 12h1v1h-1z"/><path d="m19 12h1v1h-1z"/><path d="m21 12h1v1h-1z"/><path d="m23 10h1v1h-1z"/><path d="m23 12h1v1h-1z"/><g fill="none" stroke="#000" stroke-linejoin="round" stroke-linecap="round" stroke-width="2" stroke-miterlimit="10"><path d="m2 22h28"/><path d="m20.5 18c-.8 0-1.5.7-1.5 1.5v2.5h3v-2.5c0-.9-.7-1.5-1.5-1.5z"/></g></svg>