<?xml version="1.0" encoding="utf-8"?>
<!-- Generator: Adobe Illustrator 19.1.0, SVG Export Plug-In . SVG Version: 6.00 Build 0)  -->
<svg version="1.1" id="Ebene_1" xmlns="http://www.w3.org/2000/svg" xmlns:xlink="http://www.w3.org/1999/xlink" x="0px" y="0px"
	 viewBox="0 0 32 24" style="enable-background:new 0 0 32 24;" xml:space="preserve">
<style type="text/css">
	.st0{fill-rule:evenodd;clip-rule:evenodd;}
	.st1{fill:none;stroke:#000000;stroke-width:2;stroke-linejoin:round;stroke-miterlimit:10;}
	.st2{fill:none;stroke:#000000;stroke-width:2;stroke-linecap:round;stroke-miterlimit:10;}
	.st3{fill-rule:evenodd;clip-rule:evenodd;fill:none;stroke:#000000;stroke-width:2;stroke-miterlimit:10;}
	.st4{fill:none;stroke:#000000;stroke-width:2;stroke-linecap:round;stroke-linejoin:round;stroke-miterlimit:10;}
	
		.st5{fill-rule:evenodd;clip-rule:evenodd;fill:none;stroke:#000000;stroke-width:2;stroke-linecap:round;stroke-linejoin:round;stroke-miterlimit:10;}
	.st6{fill:none;stroke:#000000;stroke-linecap:round;stroke-linejoin:round;stroke-miterlimit:10;}
	.st7{opacity:0.5;}
	.st8{fill-rule:evenodd;clip-rule:evenodd;fill:none;stroke:#000000;stroke-width:2;stroke-linecap:round;stroke-miterlimit:10;}
	.st9{fill:none;stroke:#000000;stroke-width:2;stroke-linecap:round;stroke-linejoin:round;}
	.st10{fill:none;stroke:#000000;stroke-width:2;stroke-linecap:round;stroke-linejoin:round;stroke-dasharray:2,3;}
	
		.st11{clip-path:url(#SVGID_2_);fill-rule:evenodd;clip-rule:evenodd;fill:none;stroke:#000000;stroke-width:2;stroke-linecap:round;stroke-linejoin:round;stroke-miterlimit:10;}
	
		.st12{clip-path:url(#SVGID_4_);fill-rule:evenodd;clip-rule:evenodd;fill:none;stroke:#000000;stroke-width:2;stroke-linecap:round;stroke-linejoin:round;stroke-miterlimit:10;}
	
		.st13{clip-path:url(#SVGID_6_);fill-rule:evenodd;clip-rule:evenodd;fill:none;stroke:#000000;stroke-width:2;stroke-linecap:round;stroke-linejoin:round;stroke-miterlimit:10;}
	
		.st14{clip-path:url(#SVGID_8_);fill-rule:evenodd;clip-rule:evenodd;fill:none;stroke:#000000;stroke-width:2;stroke-linecap:round;stroke-linejoin:round;stroke-miterlimit:10;}
	
		.st15{clip-path:url(#SVGID_10_);fill-rule:evenodd;clip-rule:evenodd;fill:none;stroke:#000000;stroke-width:2;stroke-linecap:round;stroke-linejoin:round;stroke-miterlimit:10;}
	.st16{fill:none;stroke:#000000;stroke-width:2;stroke-miterlimit:10;}
	.st17{clip-path:url(#SVGID_12_);}
	.st18{fill-rule:evenodd;clip-rule:evenodd;fill:none;}
</style>
<g>
	<polyline class="st4" points="6,22 6,6 15,6 15,22 	"/>
	<polyline class="st4" points="26,22 26,8 15,8 15,22 	"/>
	<polyline class="st4" points="11,6 11,1 22,1 22,8 	"/>
	<rect x="17" y="10" width="1" height="1"/>
	<rect x="19" y="10" width="1" height="1"/>
	<rect x="10" y="8" width="1" height="1"/>
	<rect x="8" y="8" width="1" height="1"/>
	<rect x="8" y="10" width="1" height="1"/>
	<rect x="10" y="10" width="1" height="1"/>
	<rect x="12" y="10" width="1" height="1"/>
	<rect x="8" y="12" width="1" height="1"/>
	<rect x="10" y="12" width="1" height="1"/>
	<rect x="12" y="12" width="1" height="1"/>
	<rect x="12" y="8" width="1" height="1"/>
	<rect x="19" y="3" width="1" height="1"/>
	<rect x="17" y="3" width="1" height="1"/>
	<rect x="19" y="5" width="1" height="1"/>
	<rect x="17" y="5" width="1" height="1"/>
	<rect x="15" y="3" width="1" height="1"/>
	<rect x="13" y="3" width="1" height="1"/>
	<rect x="21" y="10" width="1" height="1"/>
	<rect x="17" y="12" width="1" height="1"/>
	<rect x="19" y="12" width="1" height="1"/>
	<rect x="21" y="12" width="1" height="1"/>
	<rect x="23" y="10" width="1" height="1"/>
	<rect x="23" y="12" width="1" height="1"/>
</g>
<line class="st4" x1="2" y1="22" x2="30" y2="22"/>
<path class="st4" d="M20.5,18L20.5,18c-0.8,0-1.5,0.7-1.5,1.5V22h3v-2.5C22,18.6,21.3,18,20.5,18z"/>
</svg>
