<svg xmlns="http://www.w3.org/2000/svg" viewBox="0 0 24 24" enable-background="new 0 0 24 24"><path fill="none" fill-rule="evenodd" stroke="#000" stroke-linejoin="round" stroke-linecap="round" stroke-width="2" stroke-miterlimit="10" d="m3 10h18v13h-18z"/><path d="m12 15c.6 0 1 .4 1 1s-.4 1-1 1-1-.4-1-1 .4-1 1-1m0-2c-1.7 0-3 1.3-3 3s1.3 3 3 3 3-1.3 3-3-1.3-3-3-3z"/><path d="M17.4,6.1c-0.5-2.8-3.2-5.1-6.2-5.1C8,1.1,5,3.7,5,7v3" fill="none" stroke="#000" stroke-linecap="round" stroke-width="2" stroke-miterlimit="10"/></svg>