<?xml version="1.0" encoding="utf-8"?>
<!-- Generator: Adobe Illustrator 19.1.0, SVG Export Plug-In . SVG Version: 6.00 Build 0)  -->
<svg version="1.1" id="Ebene_1" xmlns="http://www.w3.org/2000/svg" xmlns:xlink="http://www.w3.org/1999/xlink" x="0px" y="0px"
	 viewBox="0 0 24 24" style="enable-background:new 0 0 24 24;" xml:space="preserve">
<style type="text/css">
	.st0{fill-rule:evenodd;clip-rule:evenodd;}
	.st1{fill:none;stroke:#000000;stroke-width:2;stroke-linejoin:round;stroke-miterlimit:10;}
	.st2{fill:none;stroke:#000000;stroke-width:2;stroke-linecap:round;stroke-miterlimit:10;}
	.st3{fill-rule:evenodd;clip-rule:evenodd;fill:none;stroke:#000000;stroke-width:2;stroke-miterlimit:10;}
	.st4{fill:none;stroke:#000000;stroke-width:2;stroke-linecap:round;stroke-linejoin:round;stroke-miterlimit:10;}
	
		.st5{fill-rule:evenodd;clip-rule:evenodd;fill:none;stroke:#000000;stroke-width:2;stroke-linecap:round;stroke-linejoin:round;stroke-miterlimit:10;}
	.st6{fill:none;stroke:#000000;stroke-linecap:round;stroke-linejoin:round;stroke-miterlimit:10;}
	.st7{opacity:0.5;}
	.st8{fill-rule:evenodd;clip-rule:evenodd;fill:none;stroke:#000000;stroke-width:2;stroke-linecap:round;stroke-miterlimit:10;}
	.st9{fill:none;stroke:#000000;stroke-width:2;stroke-linecap:round;stroke-linejoin:round;}
	.st10{fill:none;stroke:#000000;stroke-width:2;stroke-linecap:round;stroke-linejoin:round;stroke-dasharray:2,3;}
	
		.st11{clip-path:url(#SVGID_2_);fill-rule:evenodd;clip-rule:evenodd;fill:none;stroke:#000000;stroke-width:2;stroke-linecap:round;stroke-linejoin:round;stroke-miterlimit:10;}
	
		.st12{clip-path:url(#SVGID_4_);fill-rule:evenodd;clip-rule:evenodd;fill:none;stroke:#000000;stroke-width:2;stroke-linecap:round;stroke-linejoin:round;stroke-miterlimit:10;}
	
		.st13{clip-path:url(#SVGID_6_);fill-rule:evenodd;clip-rule:evenodd;fill:none;stroke:#000000;stroke-width:2;stroke-linecap:round;stroke-linejoin:round;stroke-miterlimit:10;}
	
		.st14{clip-path:url(#SVGID_8_);fill-rule:evenodd;clip-rule:evenodd;fill:none;stroke:#000000;stroke-width:2;stroke-linecap:round;stroke-linejoin:round;stroke-miterlimit:10;}
	
		.st15{clip-path:url(#SVGID_10_);fill-rule:evenodd;clip-rule:evenodd;fill:none;stroke:#000000;stroke-width:2;stroke-linecap:round;stroke-linejoin:round;stroke-miterlimit:10;}
	.st16{fill:none;stroke:#000000;stroke-width:2;stroke-miterlimit:10;}
	.st17{clip-path:url(#SVGID_12_);}
	.st18{fill-rule:evenodd;clip-rule:evenodd;fill:none;}
</style>
<line class="st2" x1="16.5" y1="19.8" x2="17.5" y2="21.5"/>
<line class="st2" x1="6.5" y1="2.5" x2="7.5" y2="4.2"/>
<line class="st2" x1="15.1" y1="13.8" x2="21.5" y2="17.5"/>
<line class="st2" x1="2.5" y1="6.5" x2="4.2" y2="7.5"/>
<line class="st2" x1="21" y1="12" x2="23" y2="12"/>
<line class="st2" x1="1" y1="12" x2="3" y2="12"/>
<line class="st2" x1="19.8" y1="7.5" x2="21.5" y2="6.5"/>
<line class="st2" x1="2.5" y1="17.5" x2="9.4" y2="13.5"/>
<line class="st2" x1="16.5" y1="4.2" x2="17.5" y2="2.5"/>
<line class="st2" x1="6.5" y1="21.5" x2="7.5" y2="19.8"/>
<line class="st2" x1="12" y1="8" x2="12" y2="1"/>
<line class="st2" x1="12" y1="23" x2="12" y2="21"/>
<circle class="st3" cx="12" cy="12" r="9"/>
<g>
	<path d="M12,10L12,10c0.7,0,1.4,0.4,1.7,1c0.6,1,0.2,2.2-0.7,2.7c-0.3,0.2-0.6,0.3-1,0.3c-0.7,0-1.4-0.4-1.7-1
		c-0.3-0.5-0.3-1-0.2-1.5c0.1-0.5,0.5-0.9,0.9-1.2C11.3,10.1,11.6,10,12,10 M12,8c-0.7,0-1.4,0.2-2,0.5C8.1,9.6,7.4,12.1,8.5,14
		c0.7,1.3,2.1,2,3.5,2c0.7,0,1.4-0.2,2-0.5c1.9-1.1,2.6-3.6,1.5-5.5C14.7,8.7,13.4,8,12,8L12,8z"/>
</g>
</svg>
