<svg xmlns="http://www.w3.org/2000/svg" viewBox="0 0 24 24" enable-background="new 0 0 24 24"><g fill="none" stroke="#000" stroke-width="2" stroke-miterlimit="10"><g stroke-linecap="round"><path d="m16.5 19.8l1 1.7"/><path d="m6.5 2.5l1 1.7"/><path d="m15.1 13.8l6.4 3.7"/><path d="m2.5 6.5l1.7 1"/><path d="m21 12h2"/><path d="m1 12h2"/><path d="m19.8 7.5l1.7-1"/><path d="m2.5 17.5l6.9-4"/><path d="m16.5 4.2l1-1.7"/><path d="m6.5 21.5l1-1.7"/><path d="m12 8v-7"/><path d="m12 23v-2"/></g><circle cx="12" cy="12" r="9" fill-rule="evenodd"/></g><path d="m12 10c.7 0 1.4.4 1.7 1 .6 1 .2 2.2-.7 2.7-.3.2-.6.3-1 .3-.7 0-1.4-.4-1.7-1-.3-.5-.3-1-.2-1.5.1-.5.5-.9.9-1.2.3-.2.6-.3 1-.3m0-2c-.7 0-1.4.2-2 .5-1.9 1.1-2.6 3.6-1.5 5.5.7 1.3 2.1 2 3.5 2 .7 0 1.4-.2 2-.5 1.9-1.1 2.6-3.6 1.5-5.5-.8-1.3-2.1-2-3.5-2z"/></svg>