<svg xmlns="http://www.w3.org/2000/svg" viewBox="0 0 32 24" enable-background="new 0 0 32 24" xmlns:xlink="http://www.w3.org/1999/xlink"><path d="m24 18h4.5c.9 0 1.5-2.2 1.5-3.5 0-2.2-1.7-4.2-3.8-4.2-.3 0-.5 0-.8 0-.1-4.6-3.6-8.3-7.9-8.3-1.7 0-3.2.5-4.5 1.5-1-.4-2-.7-3.1-.7-4.3 0-7.9 4.1-7.9 8.8 0 2.4.9 5.4 2.4 6.4h1.6" fill="none" fill-rule="evenodd" stroke="#000" stroke-linecap="round" stroke-width="2" stroke-miterlimit="10"/><path fill="none" fill-rule="evenodd" stroke="#000" stroke-linecap="round" stroke-width="2" stroke-miterlimit="10" d="m9 13v1" id="0"/><use xlink:href="#0"/><path fill="none" fill-rule="evenodd" stroke="#000" stroke-linecap="round" stroke-width="2" stroke-miterlimit="10" d="m9 17v1"/><path fill="none" fill-rule="evenodd" stroke="#000" stroke-linecap="round" stroke-width="2" stroke-miterlimit="10" d="m13 13v1" id="1"/><use xlink:href="#1"/><path fill="none" fill-rule="evenodd" stroke="#000" stroke-linecap="round" stroke-width="2" stroke-miterlimit="10" d="m13 17v1"/><path fill="none" fill-rule="evenodd" stroke="#000" stroke-linecap="round" stroke-width="2" stroke-miterlimit="10" d="m17 13v1" id="2"/><use xlink:href="#2"/><path fill="none" fill-rule="evenodd" stroke="#000" stroke-linecap="round" stroke-width="2" stroke-miterlimit="10" d="m17 17v1"/><path fill="none" fill-rule="evenodd" stroke="#000" stroke-linecap="round" stroke-width="2" stroke-miterlimit="10" d="m21 13v1" id="3"/><use xlink:href="#3"/><g fill="none" fill-rule="evenodd" stroke="#000" stroke-linecap="round" stroke-width="2" stroke-miterlimit="10"><path d="m21 17v1"/><path d="m9 21v1"/><path d="m13 21v1"/><path d="m17 21v1"/><path d="m21 21v1"/></g></svg>