<svg xmlns="http://www.w3.org/2000/svg" viewBox="0 0 24 24" enable-background="new 0 0 24 24"><path fill="none" stroke="#000" stroke-linejoin="round" stroke-linecap="round" stroke-width="2" stroke-miterlimit="10" d="M 22,3 2,21"/><path d="m3 18c-.6 0-1-.4-1-1v-3.4c0-.6.4-1 1-1s1 .4 1 1v3.4c0 .6-.4 1-1 1m0-6.6c-.6 0-1-.4-1-1v-2.2c0-.6.4-1 1-1s1 .4 1 1v2.2c0 .5-.4 1-1 1"/><path d="m3 6c-.6 0-1-.4-1-1v-1c0-.6.4-1 1-1h1c.6 0 1 .4 1 1s-.4 1-1 1c0 .6-.4 1-1 1"/><path d="m17.3 5h-1.8c-.6 0-1-.4-1-1s.4-1 1-1h1.8c.6 0 1 .4 1 1s-.4 1-1 1m-4.4 0h-1.8c-.6 0-1-.4-1-1s.4-1 1-1h1.8c.6 0 1 .4 1 1s-.5 1-1 1m-4.5 0h-1.7c-.6 0-1-.4-1-1s.4-1 1-1h1.8c.6 0 1 .4 1 1s-.5 1-1.1 1"/><path d="m21 16.8c-.6 0-1-.4-1-1v-2.2c0-.6.4-1 1-1s1 .4 1 1v2.2c0 .5-.4 1-1 1m0-5.4c-.6 0-1-.4-1-1v-3.4c0-.6.4-1 1-1s1 .4 1 1v3.4c0 .5-.4 1-1 1"/><path d="m21 21h-1c-.6 0-1-.4-1-1s.4-1 1-1c0-.6.4-1 1-1s1 .4 1 1v1c0 .6-.4 1-1 1"/><path d="m17.3 21h-1.8c-.6 0-1-.4-1-1s.4-1 1-1h1.8c.6 0 1 .4 1 1s-.4 1-1 1m-4.4 0h-1.8c-.6 0-1-.4-1-1s.4-1 1-1h1.8c.6 0 1 .4 1 1s-.5 1-1 1m-4.5 0h-1.7c-.6 0-1-.4-1-1s.4-1 1-1h1.8c.6 0 1 .4 1 1s-.5 1-1.1 1"/></svg>