<?xml version="1.0" encoding="utf-8"?>
<!-- Generator: Adobe Illustrator 19.1.0, SVG Export Plug-In . SVG Version: 6.00 Build 0)  -->
<svg version="1.1" id="Ebene_1" xmlns="http://www.w3.org/2000/svg" xmlns:xlink="http://www.w3.org/1999/xlink" x="0px" y="0px"
	 viewBox="0 0 24 24" style="enable-background:new 0 0 24 24;" xml:space="preserve">
<style type="text/css">
	.st0{fill-rule:evenodd;clip-rule:evenodd;}
	.st1{fill:none;stroke:#000000;stroke-width:2;stroke-linejoin:round;stroke-miterlimit:10;}
	.st2{fill:none;stroke:#000000;stroke-width:2;stroke-linecap:round;stroke-miterlimit:10;}
	.st3{fill-rule:evenodd;clip-rule:evenodd;fill:none;stroke:#000000;stroke-width:2;stroke-miterlimit:10;}
	.st4{fill:none;stroke:#000000;stroke-width:2;stroke-linecap:round;stroke-linejoin:round;stroke-miterlimit:10;}
	
		.st5{fill-rule:evenodd;clip-rule:evenodd;fill:none;stroke:#000000;stroke-width:2;stroke-linecap:round;stroke-linejoin:round;stroke-miterlimit:10;}
	.st6{fill:none;stroke:#000000;stroke-linecap:round;stroke-linejoin:round;stroke-miterlimit:10;}
	.st7{opacity:0.5;}
	.st8{fill-rule:evenodd;clip-rule:evenodd;fill:none;stroke:#000000;stroke-width:2;stroke-linecap:round;stroke-miterlimit:10;}
	.st9{fill:none;stroke:#000000;stroke-width:2;stroke-linecap:round;stroke-linejoin:round;}
	.st10{fill:none;stroke:#000000;stroke-width:2;stroke-linecap:round;stroke-linejoin:round;stroke-dasharray:2,3;}
	
		.st11{clip-path:url(#SVGID_2_);fill-rule:evenodd;clip-rule:evenodd;fill:none;stroke:#000000;stroke-width:2;stroke-linecap:round;stroke-linejoin:round;stroke-miterlimit:10;}
	
		.st12{clip-path:url(#SVGID_4_);fill-rule:evenodd;clip-rule:evenodd;fill:none;stroke:#000000;stroke-width:2;stroke-linecap:round;stroke-linejoin:round;stroke-miterlimit:10;}
	
		.st13{clip-path:url(#SVGID_6_);fill-rule:evenodd;clip-rule:evenodd;fill:none;stroke:#000000;stroke-width:2;stroke-linecap:round;stroke-linejoin:round;stroke-miterlimit:10;}
	
		.st14{clip-path:url(#SVGID_8_);fill-rule:evenodd;clip-rule:evenodd;fill:none;stroke:#000000;stroke-width:2;stroke-linecap:round;stroke-linejoin:round;stroke-miterlimit:10;}
	
		.st15{clip-path:url(#SVGID_10_);fill-rule:evenodd;clip-rule:evenodd;fill:none;stroke:#000000;stroke-width:2;stroke-linecap:round;stroke-linejoin:round;stroke-miterlimit:10;}
	.st16{fill:none;stroke:#000000;stroke-width:2;stroke-miterlimit:10;}
	.st17{clip-path:url(#SVGID_12_);}
	.st18{fill-rule:evenodd;clip-rule:evenodd;fill:none;}
</style>
<line class="st4" x1="22" y1="3" x2="2" y2="21"/>
<g>
	<g>
		<path d="M3,18c-0.6,0-1-0.4-1-1v-3.4c0-0.6,0.4-1,1-1s1,0.4,1,1V17C4,17.6,3.6,18,3,18z M3,11.4c-0.6,0-1-0.4-1-1V8.2
			c0-0.6,0.4-1,1-1s1,0.4,1,1v2.2C4,10.9,3.6,11.4,3,11.4z"/>
		<path d="M3,6C2.4,6,2,5.6,2,5V4c0-0.6,0.4-1,1-1h1c0.6,0,1,0.4,1,1S4.6,5,4,5C4,5.6,3.6,6,3,6z"/>
		<path d="M17.3,5h-1.8c-0.6,0-1-0.4-1-1s0.4-1,1-1h1.8c0.6,0,1,0.4,1,1S17.9,5,17.3,5z M12.9,5h-1.8c-0.6,0-1-0.4-1-1s0.4-1,1-1
			h1.8c0.6,0,1,0.4,1,1S13.4,5,12.9,5z M8.4,5H6.7c-0.6,0-1-0.4-1-1s0.4-1,1-1h1.8c0.6,0,1,0.4,1,1S9,5,8.4,5z"/>
		<path d="M21,16.8c-0.6,0-1-0.4-1-1v-2.2c0-0.6,0.4-1,1-1s1,0.4,1,1v2.2C22,16.3,21.6,16.8,21,16.8z M21,11.4c-0.6,0-1-0.4-1-1V7
			c0-0.6,0.4-1,1-1s1,0.4,1,1v3.4C22,10.9,21.6,11.4,21,11.4z"/>
		<path d="M21,21h-1c-0.6,0-1-0.4-1-1s0.4-1,1-1c0-0.6,0.4-1,1-1s1,0.4,1,1v1C22,20.6,21.6,21,21,21z"/>
		<path d="M17.3,21h-1.8c-0.6,0-1-0.4-1-1s0.4-1,1-1h1.8c0.6,0,1,0.4,1,1S17.9,21,17.3,21z M12.9,21h-1.8c-0.6,0-1-0.4-1-1
			s0.4-1,1-1h1.8c0.6,0,1,0.4,1,1S13.4,21,12.9,21z M8.4,21H6.7c-0.6,0-1-0.4-1-1s0.4-1,1-1h1.8c0.6,0,1,0.4,1,1S9,21,8.4,21z"/>
	</g>
</g>
</svg>
