<svg xmlns="http://www.w3.org/2000/svg" viewBox="0 0 24 24" enable-background="new 0 0 24 24"><g fill="none" stroke="#000" stroke-linejoin="round" stroke-linecap="round" stroke-width="2"><path d="m4 20h-1v-1"/><path stroke-dasharray="2 3" d="m3 16v-9"/><path d="m3 5v-1h1"/><path stroke-dasharray="2 3" d="m7 4h12"/><path d="m20 4h1v1"/><path stroke-dasharray="2 3" d="m21 8v9"/><path d="m21 19v1h-1"/><path stroke-dasharray="2 3" d="m17 20h-12"/></g><g fill-rule="evenodd"><path d="m16 11h-8c-.6 0-1 .4-1 1 0 .6.4 1 1 1h8c.6 0 1-.4 1-1 0-.6-.4-1-1-1"/><path fill="none" stroke="#000" stroke-linejoin="round" stroke-linecap="round" stroke-width="2" stroke-miterlimit="10" d="m14 9l3 3-3 3"/></g></svg>