<svg xmlns="http://www.w3.org/2000/svg" viewBox="0 0 24 24" enable-background="new 0 0 24 24"><g fill="none" stroke="#000" stroke-linecap="round" stroke-width="2" stroke-miterlimit="10"><path d="m12 4v-3"/><path d="m12 23v-3"/><path d="m6.3 6.3l-2.1-2.1"/><path d="m19.8 19.8l-2.1-2.1"/><path d="m6.3 17.7l-2.1 2.1"/><path d="m19.8 4.2l-2.1 2.1"/><path d="m20 12h3"/><path d="m1 12h3"/></g><path d="m12 6c3.3 0 6 2.7 6 6 0 3.3-2.7 6-6 6s-6-2.7-6-6c0-3.3 2.7-6 6-6m0-2c-4.4 0-8 3.6-8 8 0 4.4 3.6 8 8 8s8-3.6 8-8c0-4.4-3.6-8-8-8z"/></svg>